<?xml version="1.0" encoding="utf-8"?>
<!-- Generator: Adobe Illustrator 18.1.0, SVG Export Plug-In . SVG Version: 6.00 Build 0)  -->
<svg version="1.1" id="Layer_1" xmlns="http://www.w3.org/2000/svg" xmlns:xlink="http://www.w3.org/1999/xlink" x="0px" y="0px"
	 viewBox="0 0 226.9 226.9" enable-background="new 0 0 226.9 226.9" xml:space="preserve">
<g>
	<g>
		<path fill="#F5F6F6" d="M111.5,107.3c-1.2-0.3-2.2-1.4-2.4-2.7l-9.4-71.4c-0.2-1.8,1-3.4,2.8-3.6c1.7-0.2,3.4,1,3.6,2.8l9.4,71.4
			c0.2,1.8-1,3.4-2.8,3.6C112.3,107.4,111.9,107.4,111.5,107.3z"/>
	</g>
	<g>
		<g>
			<path fill="#F5F6F6" d="M102,36.8c-0.4-0.1-0.8-0.3-1.2-0.6L70.5,12.8c-1.4-1.1-1.7-3.1-0.6-4.5C71,6.9,73,6.6,74.5,7.7
				l27.8,21.3l21.4-27.8c1.1-1.4,3.1-1.7,4.5-0.6c1.4,1.1,1.7,3.1,0.6,4.5L105.9,35c-0.1,0.2-0.2,0.4-0.4,0.6
				c-0.6,0.7-1.4,1.1-2.2,1.2c0,0-0.1,0-0.1,0C102.8,36.9,102.4,36.9,102,36.8z"/>
		</g>
	</g>
	<g>
		<g>
			<path fill="#F5F6F6" d="M105.7,64c-0.4-0.1-0.8-0.3-1.2-0.6L80.8,45.1c-1.4-1.1-1.7-3.1-0.6-4.5c1.1-1.4,3.1-1.7,4.5-0.6
				L106,56.4l16.3-21.3c1.1-1.4,3.1-1.7,4.5-0.6c1.4,1.1,1.7,3.1,0.6,4.5l-17.9,23.3c-0.1,0.2-0.2,0.4-0.3,0.5
				c-0.5,0.7-1.3,1.1-2.2,1.2c0,0,0,0,0,0C106.5,64.2,106.1,64.1,105.7,64z"/>
		</g>
	</g>
	<g>
		<g>
			<path fill="#F5F6F6" d="M109.5,92.3c-0.4-0.1-0.8-0.3-1.2-0.6L89,76.9c-1.4-1.1-1.7-3.1-0.6-4.5c1.1-1.4,3.1-1.7,4.5-0.6
				l16.8,12.9l12.9-16.8c1.1-1.4,3.1-1.7,4.5-0.6c1.4,1.1,1.7,3.1,0.6,4.5l-14.5,18.9c-0.1,0.2-0.2,0.3-0.3,0.5
				c-0.5,0.7-1.3,1.1-2.1,1.2c0,0,0,0-0.1,0C110.3,92.5,109.9,92.4,109.5,92.3z"/>
		</g>
	</g>
	<g>
		<path fill="#F5F6F6" d="M122.8,197.3c-1.2-0.3-2.2-1.4-2.4-2.7l-9.4-71.4c-0.2-1.8,1-3.4,2.8-3.6c1.8-0.2,3.4,1,3.6,2.8l9.4,71.4
			c0.2,1.8-1,3.4-2.8,3.6C123.6,197.4,123.1,197.4,122.8,197.3z"/>
	</g>
	<g>
		<g>
			<path fill="#F5F6F6" d="M99.5,226.8c-0.4-0.1-0.8-0.3-1.2-0.6c-1.4-1.1-1.7-3.1-0.6-4.5l22.9-29.8c0.1-0.2,0.2-0.4,0.4-0.6
				c0.6-0.7,1.3-1.1,2.2-1.2c0,0,0.1,0,0.1,0c0.9-0.1,1.7,0.1,2.4,0.6l30.3,23.4c1.4,1.1,1.7,3.1,0.6,4.5c-1.1,1.4-3.1,1.7-4.5,0.6
				l-27.8-21.4l-21.4,27.8C102,226.7,100.7,227.1,99.5,226.8z"/>
		</g>
	</g>
	<g>
		<g>
			<path fill="#F5F6F6" d="M100.8,192.9c-0.4-0.1-0.8-0.3-1.2-0.5c-1.4-1.1-1.7-3.1-0.6-4.5l17.9-23.3c0.1-0.2,0.2-0.4,0.4-0.6
				c0.5-0.7,1.3-1.1,2.1-1.2c0,0,0.1,0,0.1,0c0.8-0.1,1.7,0.1,2.4,0.7l23.8,18.3c1.4,1.1,1.7,3.1,0.6,4.5c-1.1,1.4-3.1,1.7-4.5,0.6
				l-21.3-16.3l-16.3,21.3C103.4,192.9,102,193.3,100.8,192.9z"/>
		</g>
	</g>
	<g>
		<g>
			<path fill="#F5F6F6" d="M100.5,160.2c-0.4-0.1-0.8-0.3-1.2-0.6c-1.4-1.1-1.7-3.1-0.6-4.5l14.5-18.9c0.1-0.2,0.2-0.3,0.3-0.5
				c0.5-0.7,1.3-1.1,2.1-1.2c0,0,0,0,0.1,0c0.8-0.1,1.7,0.1,2.4,0.6l19.3,14.9c1.4,1.1,1.7,3.1,0.6,4.5c-1.1,1.4-3.1,1.7-4.5,0.6
				l-16.8-12.9L103.8,159C103,160,101.7,160.5,100.5,160.2z"/>
		</g>
	</g>
	<g>
		<path fill="#F5F6F6" d="M61.5,180.9c-0.4-0.1-0.8-0.3-1.1-0.6c-1.4-1.1-1.7-3.1-0.6-4.5l43.8-57.1c1.1-1.4,3.1-1.7,4.5-0.6
			c1.4,1.1,1.7,3.1,0.6,4.5l-43.8,57.1C64.1,180.8,62.7,181.2,61.5,180.9z"/>
	</g>
	<g>
		<g>
			<path fill="#F5F6F6" d="M67.1,218.3c-1.2-0.3-2.2-1.3-2.4-2.7l-4.6-34.8l-34.8,4.6c-1.8,0.2-3.4-1-3.6-2.8
				c-0.2-1.8,1-3.4,2.8-3.6l37.2-4.9c0.2-0.1,0.5-0.1,0.7-0.2c0.9-0.1,1.8,0.2,2.4,0.7c0,0,0,0,0,0c0.7,0.5,1.1,1.3,1.2,2.1l4.9,38
				c0.2,1.8-1,3.4-2.8,3.6C67.9,218.4,67.5,218.4,67.1,218.3z"/>
		</g>
	</g>
	<g>
		<g>
			<path fill="#F5F6F6" d="M82.7,188.2c-1.2-0.3-2.2-1.4-2.4-2.7l-3.5-26.6l-26.6,3.5c-1.8,0.2-3.4-1-3.6-2.8
				c-0.2-1.8,1-3.4,2.8-3.6l29.1-3.8c0.2-0.1,0.4-0.1,0.6-0.2c0.9-0.1,1.8,0.2,2.4,0.7l0,0c0.7,0.5,1.1,1.3,1.2,2.1l3.8,29.8
				c0.2,1.8-1,3.4-2.8,3.6C83.5,188.3,83.1,188.3,82.7,188.2z"/>
		</g>
	</g>
	<g>
		<g>
			<path fill="#F5F6F6" d="M99.3,159.9c-1.2-0.3-2.2-1.4-2.4-2.7l-2.7-21l-21,2.8c-1.8,0.2-3.4-1-3.6-2.8c-0.2-1.8,1-3.4,2.8-3.6
				l23.6-3.1c0.2-0.1,0.4-0.1,0.6-0.1c0.9-0.1,1.7,0.1,2.4,0.6c0,0,0,0,0.1,0c0.7,0.5,1.1,1.3,1.2,2.1l3.1,24.2
				c0.2,1.8-1,3.4-2.8,3.6C100.1,160,99.7,160,99.3,159.9z"/>
		</g>
	</g>
	<g>
		<path fill="#F5F6F6" d="M117.8,109.5c-0.4-0.1-0.8-0.3-1.2-0.6c-1.4-1.1-1.7-3.1-0.6-4.5l43.9-57.1c1.1-1.4,3.1-1.7,4.5-0.6
			c1.4,1.1,1.7,3.1,0.6,4.5l-43.9,57.1C120.3,109.4,119,109.8,117.8,109.5z"/>
	</g>
	<g>
		<g>
			<path fill="#F5F6F6" d="M160.4,52.8c-0.4-0.1-0.8-0.3-1.2-0.6c0,0,0,0-0.1-0.1c-0.7-0.5-1.1-1.3-1.2-2.1l-4.9-38
				c-0.2-1.8,1-3.4,2.8-3.6c1.8-0.2,3.4,1,3.6,2.8L164,46l34.8-4.6c1.8-0.2,3.4,1,3.6,2.8c0.2,1.8-1,3.4-2.8,3.6l-37.3,4.9
				c-0.2,0.1-0.5,0.1-0.7,0.2C161.2,52.9,160.8,52.9,160.4,52.8z"/>
		</g>
	</g>
	<g>
		<g>
			<path fill="#F5F6F6" d="M144.3,74.9c-0.4-0.1-0.8-0.3-1.2-0.6c0,0-0.1,0-0.1-0.1c-0.7-0.5-1.1-1.3-1.2-2.1L138,42.4
				c-0.2-1.8,1-3.4,2.8-3.6c1.8-0.2,3.4,1,3.6,2.8l3.5,26.6l26.6-3.5c1.8-0.2,3.4,1,3.6,2.8c0.2,1.7-1,3.4-2.8,3.6l-29.1,3.8
				c-0.2,0.1-0.4,0.1-0.6,0.2C145.1,75.1,144.7,75,144.3,74.9z"/>
		</g>
	</g>
	<g>
		<g>
			<path fill="#F5F6F6" d="M127,97.6c-0.4-0.1-0.8-0.3-1.2-0.6c0,0,0,0-0.1-0.1c-0.7-0.5-1.1-1.3-1.2-2.1l-3.1-24.2
				c-0.2-1.8,1-3.4,2.8-3.6c1.8-0.2,3.4,1,3.6,2.8l2.7,21l21-2.8c1.8-0.2,3.4,1,3.6,2.8c0.2,1.8-1,3.4-2.8,3.6l-23.6,3.1
				c-0.2,0.1-0.4,0.1-0.6,0.1C127.8,97.7,127.4,97.7,127,97.6z"/>
		</g>
	</g>
	<g>
		<path fill="#F5F6F6" d="M105.7,111.4c-0.4-0.1-0.8-0.3-1.2-0.6L47.5,67c-1.4-1.1-1.7-3.1-0.6-4.5c1.1-1.4,3.1-1.7,4.5-0.6
			l57.1,43.9c1.4,1.1,1.7,3.1,0.6,4.5C108.3,111.3,107,111.7,105.7,111.4z"/>
	</g>
	<g>
		<g>
			<path fill="#F5F6F6" d="M11.2,73.1C10,72.8,9,71.8,8.8,70.4c-0.2-1.8,1-3.4,2.8-3.6l34.8-4.6l-4.6-34.8c-0.2-1.8,1-3.4,2.8-3.6
				c1.8-0.2,3.4,1,3.6,2.8l4.9,37.2c0.1,0.2,0.1,0.5,0.2,0.7c0.1,0.9-0.2,1.8-0.7,2.4c0,0,0,0,0,0.1c-0.5,0.7-1.3,1.1-2.1,1.2
				l-38,4.9C12,73.3,11.6,73.2,11.2,73.1z"/>
		</g>
	</g>
	<g>
		<g>
			<path fill="#F5F6F6" d="M41.3,88.7c-1.2-0.3-2.2-1.4-2.4-2.7c-0.2-1.8,1-3.4,2.8-3.6L68.3,79l-3.5-26.6c-0.2-1.8,1-3.4,2.8-3.6
				c1.8-0.2,3.4,1,3.6,2.8L75,80.7c0.1,0.2,0.1,0.4,0.1,0.6c0.1,0.9-0.2,1.8-0.7,2.4c0,0,0,0,0,0c-0.5,0.7-1.3,1.1-2.1,1.2
				l-29.8,3.8C42.1,88.9,41.7,88.9,41.3,88.7z"/>
		</g>
	</g>
	<g>
		<g>
			<path fill="#F5F6F6" d="M69.6,105.4c-1.2-0.3-2.2-1.4-2.4-2.7c-0.2-1.8,1-3.4,2.8-3.6l21-2.7l-2.7-21c-0.2-1.8,1-3.4,2.8-3.6
				c1.8-0.2,3.4,1,3.6,2.8l3.1,23.6c0.1,0.2,0.1,0.4,0.1,0.6c0.1,0.9-0.1,1.7-0.6,2.4c0,0,0,0-0.1,0.1c-0.5,0.7-1.3,1.1-2.1,1.2
				l-24.2,3.1C70.4,105.5,70,105.5,69.6,105.4z"/>
		</g>
	</g>
	<g>
		<path fill="#F5F6F6" d="M177.3,167.1c-0.4-0.1-0.8-0.3-1.2-0.6l-57.1-43.9c-1.4-1.1-1.7-3.1-0.6-4.5c1.1-1.4,3.1-1.7,4.5-0.6
			l57.1,43.9c1.4,1.1,1.7,3.1,0.6,4.5C179.9,167,178.6,167.4,177.3,167.1z"/>
	</g>
	<g>
		<g>
			<path fill="#F5F6F6" d="M181.7,204.4c-1.2-0.3-2.2-1.3-2.4-2.7l-4.9-37.2c-0.1-0.2-0.1-0.5-0.2-0.7c-0.1-0.9,0.2-1.7,0.7-2.4
				c0,0,0,0,0.1-0.1c0.5-0.7,1.3-1.1,2.1-1.2l38-4.9c1.8-0.2,3.4,1,3.6,2.8c0.2,1.8-1,3.4-2.8,3.6l-34.8,4.6l4.6,34.8
				c0.2,1.8-1,3.4-2.8,3.6C182.5,204.6,182.1,204.5,181.7,204.4z"/>
		</g>
	</g>
	<g>
		<g>
			<path fill="#F5F6F6" d="M158.8,179.5c-1.2-0.3-2.2-1.3-2.4-2.7l-3.8-29.1c-0.1-0.2-0.1-0.4-0.1-0.6c-0.1-0.9,0.1-1.7,0.6-2.4
				c0,0,0,0,0.1-0.1c0.5-0.7,1.3-1.1,2.1-1.2l29.8-3.9c1.8-0.2,3.4,1,3.6,2.8c0.2,1.8-1,3.4-2.8,3.6l-26.6,3.5l3.5,26.6
				c0.2,1.8-1,3.4-2.8,3.6C159.6,179.6,159.2,179.6,158.8,179.5z"/>
		</g>
	</g>
	<g>
		<g>
			<path fill="#F5F6F6" d="M135.4,156.6c-1.2-0.3-2.2-1.3-2.4-2.7l-3.1-23.6c-0.1-0.2-0.1-0.4-0.1-0.6c-0.1-0.9,0.1-1.7,0.6-2.4
				c0,0,0,0,0-0.1c0.5-0.7,1.3-1.1,2.1-1.2l24.2-3.1c1.8-0.2,3.4,1,3.6,2.8c0.2,1.8-1,3.4-2.8,3.6l-21,2.7l2.8,21
				c0.2,1.8-1,3.4-2.8,3.6C136.2,156.7,135.8,156.7,135.4,156.6z"/>
		</g>
	</g>
	<g>
		<path fill="#F5F6F6" d="M31.9,126.7c-1.2-0.3-2.2-1.4-2.4-2.7c-0.2-1.8,1-3.4,2.8-3.6l71.4-9.4c1.8-0.2,3.4,1,3.6,2.8
			c0.2,1.8-1,3.4-2.8,3.6l-71.4,9.4C32.7,126.9,32.3,126.8,31.9,126.7z"/>
	</g>
	<g>
		<g>
			<path fill="#F5F6F6" d="M9.5,157.1c-0.4-0.1-0.8-0.3-1.2-0.6c-1.4-1.1-1.7-3.1-0.6-4.5l0,0l21.4-27.8L1.3,102.9
				c-1.4-1.1-1.7-3.1-0.6-4.5c1.1-1.4,3.1-1.7,4.5-0.6L35,120.6c0.2,0.1,0.4,0.2,0.6,0.4c0.7,0.5,1.1,1.4,1.2,2.2c0,0,0,0,0,0.1
				c0.1,0.8-0.1,1.7-0.6,2.4L12.8,156C12,157,10.7,157.4,9.5,157.1z"/>
		</g>
	</g>
	<g>
		<g>
			<path fill="#F5F6F6" d="M41.8,146.9c-0.4-0.1-0.8-0.3-1.2-0.6c-1.4-1.1-1.7-3.1-0.6-4.5l16.3-21.3l-21.3-16.3
				c-1.4-1.1-1.7-3.1-0.6-4.5c1.1-1.4,3.1-1.7,4.5-0.6L62.3,117c0.2,0.1,0.4,0.2,0.6,0.3c0.7,0.6,1.1,1.4,1.2,2.2c0,0,0,0,0,0
				c0.1,0.9-0.1,1.7-0.6,2.4l-18.3,23.8C44.3,146.8,43,147.2,41.8,146.9z"/>
		</g>
	</g>
	<g>
		<g>
			<path fill="#F5F6F6" d="M73.5,138.6c-0.4-0.1-0.8-0.3-1.1-0.6c-1.4-1.1-1.7-3.1-0.6-4.5l12.9-16.8l-16.8-12.9
				c-1.4-1.1-1.7-3.1-0.6-4.5c1.1-1.4,3.1-1.7,4.5-0.6l18.9,14.5c0.2,0.1,0.3,0.2,0.5,0.3c0.7,0.5,1.1,1.3,1.2,2.1c0,0,0,0.1,0,0.1
				c0.1,0.8-0.1,1.7-0.7,2.4l-14.9,19.3C76.1,138.5,74.7,138.9,73.5,138.6z"/>
		</g>
	</g>
	<g>
		<path fill="#F5F6F6" d="M121.9,115.5c-1.2-0.3-2.2-1.3-2.4-2.7c-0.2-1.8,1-3.4,2.8-3.6l71.4-9.4c1.8-0.2,3.4,1,3.6,2.8
			c0.2,1.8-1,3.4-2.8,3.6l-71.4,9.4C122.7,115.6,122.3,115.6,121.9,115.5z"/>
	</g>
	<g>
		<g>
			<path fill="#F5F6F6" d="M222.9,129.4c-0.4-0.1-0.8-0.3-1.2-0.6l-29.8-22.9c-0.2-0.1-0.4-0.2-0.6-0.4c-0.7-0.5-1.2-1.3-1.3-2.2
				c0,0,0,0,0-0.1c-0.1-0.8,0.1-1.7,0.6-2.4l23.4-30.3c1.1-1.4,3.1-1.7,4.5-0.6c1.4,1.1,1.7,3.1,0.6,4.5l-21.4,27.8l27.8,21.4
				c1.4,1.1,1.7,3.1,0.6,4.5C225.4,129.3,224.1,129.7,222.9,129.4z"/>
		</g>
	</g>
	<g>
		<g>
			<path fill="#F5F6F6" d="M189,128c-0.4-0.1-0.8-0.3-1.2-0.6l-23.3-17.9c-0.2-0.1-0.4-0.2-0.6-0.3c-0.7-0.5-1.1-1.3-1.2-2.1
				c0,0,0-0.1,0-0.1c-0.1-0.9,0.1-1.7,0.7-2.4l18.3-23.8c1.1-1.4,3.1-1.7,4.5-0.6c1.4,1.1,1.7,3.1,0.6,4.5L170.5,106l21.3,16.3
				c1.4,1.1,1.7,3.1,0.6,4.5C191.6,127.9,190.2,128.3,189,128z"/>
		</g>
	</g>
	<g>
		<g>
			<path fill="#F5F6F6" d="M156.2,128.4c-0.4-0.1-0.8-0.3-1.1-0.6l-18.9-14.5c-0.2-0.1-0.3-0.2-0.5-0.3c-0.7-0.5-1.1-1.3-1.2-2.1
				c0,0,0-0.1,0-0.1c-0.1-0.8,0.1-1.7,0.6-2.4L150,89.1c1.1-1.4,3.1-1.7,4.5-0.6c1.4,1.1,1.7,3.1,0.6,4.5l-12.9,16.8l16.8,12.9
				c1.4,1.1,1.7,3.1,0.6,4.5C158.8,128.2,157.4,128.7,156.2,128.4z"/>
		</g>
	</g>
</g>
</svg>
