<?xml version="1.0" encoding="utf-8"?>
<!-- Generator: Adobe Illustrator 18.1.0, SVG Export Plug-In . SVG Version: 6.00 Build 0)  -->
<svg version="1.1" id="Layer_1" xmlns="http://www.w3.org/2000/svg" xmlns:xlink="http://www.w3.org/1999/xlink" x="0px" y="0px"
	 viewBox="0 0 226.9 259.7" enable-background="new 0 0 226.9 259.7" xml:space="preserve">
<g>
	<g>
		<g>
			<g>
				<g>
					<path fill="#FFFFFF" d="M112.8,129.9c0-42.9,0.9-85.8,0.1-128.7c0-1.6-2.5-1.6-2.5,0c0.8,42.9-0.1,85.8-0.1,128.7
						C110.3,131.5,112.8,131.5,112.8,129.9L112.8,129.9z"/>
				</g>
			</g>
			<g>
				<g>
					<path fill="#FFFFFF" d="M77.4,37.2c10.3,14.5,21.8,28,33.3,41.6c0.4,0.5,1.4,0.5,1.8,0C124.3,64.4,136,49.9,151.3,39
						c1.3-0.9,0.1-3.1-1.3-2.2c-15.5,11-27.4,25.6-39.3,40.2c0.6,0,1.2,0,1.8,0c-11.3-13.4-22.7-26.8-32.9-41.1
						C78.6,34.6,76.5,35.9,77.4,37.2L77.4,37.2z"/>
				</g>
			</g>
			<g>
				<g>
					<path fill="#FFFFFF" d="M94.2,20.7c5.4,6.8,10.9,13.6,16.3,20.4c0.4,0.5,1.4,0.5,1.8,0c5.5-6.1,11.6-11.4,18.3-16.1
						c1.3-0.9,0.1-3.1-1.3-2.2c-6.9,4.8-13.2,10.3-18.8,16.5c0.6,0,1.2,0,1.8,0c-5.4-6.8-10.9-13.6-16.3-20.4
						C95,17.6,93.2,19.4,94.2,20.7L94.2,20.7z"/>
				</g>
			</g>
			<g>
				<g>
					<path fill="#FFFFFF" d="M100,8.6c3.5,3.5,6.9,7.2,10,11.1c0.4,0.5,1.3,0.4,1.8,0c3.6-3.3,7.3-6.7,10.9-10
						c1.2-1.1-0.6-2.9-1.8-1.8c-3.6,3.3-7.3,6.7-10.9,10c0.6,0,1.2,0,1.8,0c-3.1-3.9-6.5-7.6-10-11.1C100.6,5.7,98.8,7.5,100,8.6
						L100,8.6z"/>
				</g>
			</g>
			<g>
				<g>
					<path fill="#FFFFFF" d="M88.1,37.1c0.3,4.4,0.6,8.8,0.8,13.1c0.4-0.4,0.8-0.8,1.2-1.2c-5.3-0.4-10.5,0-15.6,1
						c-1.6,0.3-0.9,2.7,0.7,2.4c5-1,9.9-1.2,15-0.9c0.6,0,1.3-0.6,1.2-1.2c-0.3-4.4-0.6-8.8-0.8-13.1C90.5,35.5,88,35.4,88.1,37.1
						L88.1,37.1z"/>
				</g>
			</g>
			<g>
				<g>
					<path fill="#FFFFFF" d="M99.8,43.1c0.6,7.4-0.1,14.7-0.2,22.1c0.4-0.4,0.8-0.8,1.2-1.2c-7.6-0.9-15.2,0.5-22.7,1.7
						c-1.6,0.3-0.9,2.7,0.7,2.4c7.3-1.2,14.6-2.5,22-1.7c0.7,0.1,1.2-0.6,1.2-1.2c0.2-7.4,0.9-14.7,0.2-22.1
						C102.2,41.5,99.7,41.5,99.8,43.1L99.8,43.1z"/>
				</g>
			</g>
			<g>
				<g>
					<path fill="#FFFFFF" d="M119,41.6c0.3,7.5,0.6,15,0.9,22.4c0,0.6,0.4,1,0.9,1.2c6.8,2.3,13.7,4,20.8,5.3
						c1.6,0.3,2.2-2.1,0.7-2.4c-3.5-0.6-7-1.4-10.5-2.3c-2.3-0.6-7.6-1.2-9-3.1c-1.5-2-0.7-7.5-0.8-10c-0.2-3.7-0.3-7.5-0.5-11.2
						C121.4,40,118.9,40,119,41.6L119,41.6z"/>
				</g>
			</g>
			<g>
				<g>
					<path fill="#FFFFFF" d="M133.4,32.5c-0.1,3.5-0.1,7,0.1,10.5c0.1,1.7,0,3.6,1.2,4.9c1.3,1.4,3.1,1.3,4.8,1.5
						c4,0.5,8,1.3,11.9,2.4c1.6,0.4,2.2-2,0.7-2.4c-2.5-0.7-4.9-1.3-7.4-1.8c-2-0.4-4.6-0.3-6.5-0.9c-2.8-0.9-2.2-4-2.3-6.4
						c-0.1-2.6,0-5.3,0-7.9C135.9,30.9,133.4,30.9,133.4,32.5L133.4,32.5z"/>
				</g>
			</g>
			<g>
				<g>
					<path fill="#FFFFFF" d="M96.9,81.1c4.2,3.6,8,7.6,11.4,12c1,1.3,2.8-0.5,1.8-1.8c-3.4-4.3-7.2-8.3-11.4-12
						C97.5,78.2,95.7,80,96.9,81.1L96.9,81.1z"/>
				</g>
			</g>
			<g>
				<g>
					<path fill="#FFFFFF" d="M111.7,94.9c4.7-4,9.5-8,14.2-12c1.2-1-0.5-2.8-1.8-1.8c-4.7,4-9.5,8-14.2,12
						C108.7,94.2,110.5,95.9,111.7,94.9L111.7,94.9z"/>
				</g>
			</g>
			<g>
				<g>
					<path fill="#FFFFFF" d="M93.2,91.5c4.2,2.7,8.2,5.8,11.8,9.3c1.4,1.4,3.3,4.6,5.4,5c2.1,0.4,4.3-2,5.7-3
						c4.2-3.1,8.5-6.1,12.7-9.2c1.3-0.9,0-3.1-1.3-2.2c-3.2,2.3-6.3,4.6-9.5,6.9c-1.5,1.1-3.1,2.5-4.8,3.5c-2.4,1.4-2,1.5-4.1-0.2
						c-5-4.2-9.2-8.6-14.7-12.2C93.1,88.5,91.8,90.6,93.2,91.5L93.2,91.5z"/>
				</g>
			</g>
			<g>
				<g>
					<path fill="#FFFFFF" d="M97.5,108.2c3.3,2.5,6.6,5,9.9,7.5c1.7,1.3,3.2,2.9,5.4,2.3c2-0.5,4-2.6,5.8-3.6c3-1.7,6.1-3.4,8.9-5.4
						c1.3-0.9,0.1-3.1-1.3-2.2c-4,2.8-8.4,5.4-12.7,7.7c-2.8,1.5-4.1-0.3-6.5-2.1c-2.8-2.1-5.6-4.2-8.4-6.3
						C97.5,105.1,96.2,107.3,97.5,108.2L97.5,108.2z"/>
				</g>
			</g>
		</g>
		<g>
			<g>
				<g>
					<path fill="#FFFFFF" d="M110.3,129.8c0,42.9,0.9,85.8,0.1,128.7c0,1.6,2.5,1.6,2.5,0c0.8-42.9-0.1-85.8-0.1-128.7
						C112.8,128.2,110.3,128.2,110.3,129.8L110.3,129.8z"/>
				</g>
			</g>
			<g>
				<g>
					<path fill="#FFFFFF" d="M79.6,223.7c10.2-14.3,21.6-27.7,32.9-41.1c-0.6,0-1.2,0-1.8,0c11.9,14.6,23.9,29.2,39.3,40.2
						c1.3,0.9,2.6-1.2,1.3-2.2c-15.3-10.9-27-25.4-38.8-39.8c-0.4-0.5-1.4-0.5-1.8,0c-11.5,13.6-23,27.1-33.3,41.6
						C76.5,223.8,78.6,225.1,79.6,223.7L79.6,223.7z"/>
				</g>
			</g>
			<g>
				<g>
					<path fill="#FFFFFF" d="M96,240.8c5.4-6.8,10.9-13.6,16.3-20.4c-0.6,0-1.2,0-1.8,0c5.7,6.2,11.9,11.7,18.8,16.5
						c1.3,0.9,2.6-1.2,1.3-2.2c-6.7-4.7-12.8-10.1-18.3-16.1c-0.4-0.5-1.4-0.5-1.8,0c-5.4,6.8-10.9,13.6-16.3,20.4
						C93.2,240.3,95,242,96,240.8L96,240.8z"/>
				</g>
			</g>
			<g>
				<g>
					<path fill="#FFFFFF" d="M101.7,252.8c3.5-3.5,6.9-7.2,10-11.1c-0.6,0-1.2,0-1.8,0c3.6,3.3,7.3,6.7,10.9,10
						c1.2,1.1,3-0.7,1.8-1.8c-3.6-3.3-7.3-6.7-10.9-10c-0.5-0.4-1.3-0.5-1.8,0c-3.1,3.9-6.5,7.6-10,11.1
						C98.8,252.2,100.6,254,101.7,252.8L101.7,252.8z"/>
				</g>
			</g>
			<g>
				<g>
					<path fill="#FFFFFF" d="M90.6,222.6c0.3-4.4,0.6-8.8,0.8-13.1c0-0.6-0.6-1.3-1.2-1.2c-5,0.4-10,0.1-15-0.9
						c-1.6-0.3-2.2,2.1-0.7,2.4c5.2,1,10.4,1.3,15.6,1c-0.4-0.4-0.8-0.8-1.2-1.2c-0.3,4.4-0.6,8.8-0.8,13.1
						C88,224.2,90.5,224.2,90.6,222.6L90.6,222.6z"/>
				</g>
			</g>
			<g>
				<g>
					<path fill="#FFFFFF" d="M102.3,216.6c0.6-7.4-0.1-14.7-0.2-22.1c0-0.6-0.6-1.3-1.2-1.2c-7.4,0.8-14.7-0.5-22-1.7
						c-1.6-0.3-2.3,2.2-0.7,2.4c7.5,1.2,15.1,2.6,22.7,1.7c-0.4-0.4-0.8-0.8-1.2-1.2c0.2,7.4,0.9,14.7,0.2,22.1
						C99.7,218.2,102.2,218.2,102.3,216.6L102.3,216.6z"/>
				</g>
			</g>
			<g>
				<g>
					<path fill="#FFFFFF" d="M121.5,218.1c0.2-3.7,0.3-7.5,0.5-11.2c0.1-2.5-0.6-8.1,0.8-10c1.4-1.9,6.7-2.5,9-3.1
						c3.5-0.9,7-1.6,10.5-2.3c1.6-0.3,0.9-2.7-0.7-2.4c-7,1.3-13.9,3.1-20.8,5.3c-0.5,0.2-0.9,0.6-0.9,1.2c-0.3,7.5-0.6,15-0.9,22.4
						C118.9,219.7,121.4,219.7,121.5,218.1L121.5,218.1z"/>
				</g>
			</g>
			<g>
				<g>
					<path fill="#FFFFFF" d="M135.9,227.2c-0.1-2.4-0.1-4.8-0.1-7.2c0.1-2.6-0.7-6,2.3-7.1c1.7-0.6,4.1-0.5,5.8-0.8
						c2.7-0.5,5.4-1.1,8.1-1.9c1.5-0.4,0.9-2.8-0.7-2.4c-3.9,1.1-7.9,1.9-11.9,2.4c-1.7,0.2-3.6,0.1-4.8,1.5
						c-1.2,1.3-1.2,3.3-1.2,4.9c-0.2,3.5-0.2,7-0.1,10.5C133.4,228.8,135.9,228.8,135.9,227.2L135.9,227.2z"/>
				</g>
			</g>
			<g>
				<g>
					<path fill="#FFFFFF" d="M98.7,180.4c4.2-3.6,8-7.6,11.4-12c1-1.3-0.8-3-1.8-1.8c-3.4,4.3-7.2,8.3-11.4,12
						C95.7,179.7,97.5,181.5,98.7,180.4L98.7,180.4z"/>
				</g>
			</g>
			<g>
				<g>
					<path fill="#FFFFFF" d="M109.9,166.6c4.7,4,9.5,8,14.2,12c1.2,1,3-0.7,1.8-1.8c-4.7-4-9.5-8-14.2-12
						C110.5,163.8,108.7,165.5,109.9,166.6L109.9,166.6z"/>
				</g>
			</g>
			<g>
				<g>
					<path fill="#FFFFFF" d="M94.4,170.3c5.5-3.5,9.7-8.1,14.7-12.2c2-1.6,1.6-1.5,4.1-0.2c1.7,0.9,3.2,2.4,4.8,3.5
						c3.2,2.3,6.3,4.6,9.5,6.9c1.3,0.9,2.6-1.2,1.3-2.2c-4.2-3.1-8.5-6.1-12.7-9.2c-1.4-1-3.7-3.5-5.7-3c-2.1,0.4-4,3.6-5.4,5
						c-3.6,3.5-7.6,6.6-11.8,9.3C91.8,169,93.1,171.2,94.4,170.3L94.4,170.3z"/>
				</g>
			</g>
			<g>
				<g>
					<path fill="#FFFFFF" d="M99,156c3.4-2.8,8.4-10.8,12.7-10.9c4.3-0.1,9.4,7.5,12.7,10.2c1.3,1,3-0.8,1.8-1.8
						c-3.2-2.5-5.9-5.5-8.9-8.2c-1.3-1.2-3.4-3.7-5.4-3.8c-2.2-0.1-4.4,2.6-5.8,4c-3,2.9-5.6,6.1-8.9,8.8C96,155.2,97.8,157,99,156
						L99,156z"/>
				</g>
			</g>
		</g>
	</g>
	<g>
		<g>
			<g>
				<g>
					<path fill="#FFFFFF" d="M113.1,130.3C76.1,108.9,39.4,86.6,1.9,65.9c-1.4-0.8-2.7,1.4-1.3,2.2c37.5,20.7,74.2,43,111.3,64.4
						C113.3,133.3,114.5,131.1,113.1,130.3L113.1,130.3z"/>
				</g>
			</g>
			<g>
				<g>
					<path fill="#FFFFFF" d="M15.2,114.7c17.7-1.7,35.2-4.9,52.7-8.1c0.6-0.1,1.1-0.9,0.9-1.5c-6.5-17.4-13.2-34.9-15-53.5
						c-0.2-1.6-2.7-1.6-2.5,0c1.8,18.9,8.5,36.6,15.1,54.2c0.3-0.5,0.6-1,0.9-1.5c-17.3,3.1-34.5,6.3-52,8
						C13.6,112.3,13.6,114.8,15.2,114.7L15.2,114.7z"/>
				</g>
			</g>
			<g>
				<g>
					<path fill="#FFFFFF" d="M9.4,91.8c8.6-1.3,17.2-2.6,25.8-3.9c0.7-0.1,1.1-1,0.9-1.5c-2.5-7.8-4.1-15.8-4.8-23.9
						c-0.1-1.6-2.6-1.6-2.5,0c0.7,8.4,2.3,16.6,4.9,24.6c0.3-0.5,0.6-1,0.9-1.5c-8.6,1.3-17.2,2.6-25.8,3.9
						C7.1,89.7,7.8,92.1,9.4,91.8L9.4,91.8z"/>
				</g>
			</g>
			<g>
				<g>
					<path fill="#FFFFFF" d="M1.8,80.8c4.8-1.3,9.7-2.3,14.6-3.1c0.7-0.1,1-0.9,0.9-1.5c-1.1-4.8-2.1-9.6-3.2-14.5
						c-0.3-1.6-2.8-0.9-2.4,0.7c1.1,4.8,2.1,9.6,3.2,14.5c0.3-0.5,0.6-1,0.9-1.5c-4.9,0.8-9.8,1.8-14.6,3.1
						C-0.4,78.8,0.2,81.3,1.8,80.8L1.8,80.8z"/>
				</g>
			</g>
			<g>
				<g>
					<path fill="#FFFFFF" d="M20.5,105.3c3.9,1.9,7.9,3.9,11.8,5.8c-0.1-0.6-0.3-1.1-0.4-1.7c-2.9,4.4-5.2,9-7,14
						c-0.5,1.5,1.9,2.2,2.4,0.7c1.7-4.8,3.9-9.2,6.7-13.4c0.4-0.5,0.1-1.4-0.4-1.7c-3.9-1.9-7.9-3.9-11.8-5.8
						C20.3,102.4,19,104.6,20.5,105.3L20.5,105.3z"/>
				</g>
			</g>
			<g>
				<g>
					<path fill="#FFFFFF" d="M31.5,98.2c6.7,3.2,12.6,7.4,19,11.2c-0.1-0.6-0.3-1.1-0.4-1.7c-4.5,6.2-7.1,13.4-9.8,20.5
						c-0.6,1.5,1.8,2.2,2.4,0.7c2.6-6.9,5.2-13.9,9.6-19.9c0.4-0.6,0.1-1.4-0.4-1.7c-6.3-3.9-12.2-8.1-19-11.2
						C31.4,95.3,30.1,97.5,31.5,98.2L31.5,98.2z"/>
				</g>
			</g>
			<g>
				<g>
					<path fill="#FFFFFF" d="M39.8,80.8c6.6,3.5,13.2,7,19.9,10.4c0.5,0.3,1.1,0.2,1.5-0.2c5.3-4.8,10.3-9.9,15-15.3
						c1-1.2-0.7-3-1.8-1.8c-2.3,2.7-4.7,5.4-7.2,7.9c-1.7,1.7-4.9,6-7.2,6.3c-2.4,0.3-6.8-3.1-9-4.3c-3.3-1.7-6.6-3.5-9.9-5.2
						C39.7,77.9,38.4,80.1,39.8,80.8L39.8,80.8z"/>
				</g>
			</g>
			<g>
				<g>
					<path fill="#FFFFFF" d="M39.2,63.8c3.2,2,10.4,7.9,14.5,6.5c1.6-0.5,2.6-2.4,3.5-3.6c2.4-3.2,5-6.1,7.9-8.8
						c1.2-1.1-0.6-2.9-1.8-1.8c-2.7,2.7-4.9,6.2-7.7,8.7c-5.1,4.5-10.6-0.4-15.1-3.1C39.1,60.8,37.8,62.9,39.2,63.8L39.2,63.8z"/>
				</g>
			</g>
			<g>
				<g>
					<path fill="#FFFFFF" d="M62.9,119.7c5.2-1.8,10.6-3.1,16-3.9c1.6-0.2,0.9-2.6-0.7-2.4c-5.5,0.8-10.8,2.1-16,3.9
						C60.7,117.8,61.4,120.2,62.9,119.7L62.9,119.7z"/>
				</g>
			</g>
			<g>
				<g>
					<path fill="#FFFFFF" d="M82.3,113.8c-1.1-6.1-2.2-12.2-3.2-18.3c-0.3-1.6-2.7-0.9-2.4,0.7c1.1,6.1,2.2,12.2,3.2,18.3
						C80.1,116,82.6,115.4,82.3,113.8L82.3,113.8z"/>
				</g>
			</g>
			<g>
				<g>
					<path fill="#FFFFFF" d="M70.1,128.2c4.5-2.3,9.1-4.2,14-5.6c2-0.5,5.6-0.5,7-2.2c1.4-1.6,0.4-4.7,0.2-6.5
						c-0.5-5.2-1.1-10.4-1.6-15.6c-0.2-1.6-2.7-1.6-2.5,0c0.4,3.9,0.8,7.8,1.2,11.7c0.2,1.9,0.6,4,0.6,5.9c0,2.8,0.3,2.5-2.2,3.4
						c-6.1,2.2-12,3.7-17.9,6.7C67.4,126.8,68.7,128.9,70.1,128.2L70.1,128.2z"/>
				</g>
			</g>
			<g>
				<g>
					<path fill="#FFFFFF" d="M86.7,132.7c4.1-1.7,8.2-3.5,12.3-5.3c1.8-0.8,3.3-1.1,3.8-3.1c0.5-2.1-0.7-5.2-1.2-7.2
						c-0.8-3.4-1.8-6.8-2.3-10.4c-0.2-1.6-2.6-0.9-2.4,0.7c0.7,4.7,2.8,9.4,3.1,14c0.2,3.8-2.8,4-5.8,5.3c-2.9,1.3-5.9,2.5-8.8,3.8
						C84,131.2,85.3,133.4,86.7,132.7L86.7,132.7z"/>
				</g>
			</g>
		</g>
		<g>
			<g>
				<g>
					<path fill="#FFFFFF" d="M111.8,132.4c37.1,21.4,74.7,42.1,111.4,64.3c1.4,0.8,2.6-1.3,1.3-2.2c-36.7-22.2-74.3-42.8-111.4-64.3
						C111.6,129.4,110.4,131.6,111.8,132.4L111.8,132.4z"/>
				</g>
			</g>
			<g>
				<g>
					<path fill="#FFFFFF" d="M177.7,206.1c-7.3-16-13.2-32.6-19.1-49.1c-0.3,0.5-0.6,1-0.9,1.5c18.6-3.1,37.2-6.1,54.4-14
						c1.5-0.7,0.2-2.8-1.3-2.2c-17,7.8-35.5,10.7-53.8,13.8c-0.6,0.1-1.1,1-0.9,1.5c6,16.7,11.9,33.5,19.3,49.7
						C176.2,208.8,178.3,207.5,177.7,206.1L177.7,206.1z"/>
				</g>
			</g>
			<g>
				<g>
					<path fill="#FFFFFF" d="M200.6,200.4c-3.2-8.1-6.3-16.2-9.5-24.3c-0.3,0.5-0.6,1-0.9,1.5c8.2-1.8,16.1-4.5,23.7-8.1
						c1.5-0.7,0.2-2.8-1.3-2.2c-7.4,3.5-15.1,6.1-23.1,7.8c-0.6,0.1-1.1,0.9-0.9,1.5c3.2,8.1,6.3,16.2,9.5,24.3
						C198.8,202.5,201.2,201.9,200.6,200.4L200.6,200.4z"/>
				</g>
			</g>
			<g>
				<g>
					<path fill="#FFFFFF" d="M213.9,201.4c-1.3-4.8-2.8-9.6-4.6-14.2c-0.3,0.5-0.6,1-0.9,1.5c4.7-1.5,9.4-3,14.1-4.5
						c1.5-0.5,0.9-2.9-0.7-2.4c-4.7,1.5-9.4,3-14.1,4.5c-0.6,0.2-1.1,0.9-0.9,1.5c1.8,4.7,3.3,9.4,4.6,14.2
						C211.9,203.6,214.3,203,213.9,201.4L213.9,201.4z"/>
				</g>
			</g>
			<g>
				<g>
					<path fill="#FFFFFF" d="M182.3,195.9c-3.6-2.4-7.3-4.9-10.9-7.3c-0.5-0.4-1.4-0.1-1.7,0.4c-2.2,4.6-4.9,8.7-8.3,12.6
						c-1,1.2,0.7,3,1.8,1.8c3.4-4,6.3-8.3,8.6-13.1c-0.6,0.1-1.1,0.3-1.7,0.4c3.6,2.4,7.3,4.9,10.9,7.3
						C182.3,199,183.6,196.8,182.3,195.9L182.3,195.9z"/>
				</g>
			</g>
			<g>
				<g>
					<path fill="#FFFFFF" d="M182.9,182.8c-6.1-4.3-12.7-7.3-19.2-10.8c-0.5-0.3-1.4-0.2-1.7,0.4c-3,6.8-7.8,12.5-12.5,18.3
						c-1,1.2,0.8,3,1.8,1.8c4.8-5.9,9.8-11.8,12.8-18.8c-0.6,0.1-1.1,0.3-1.7,0.4c6.5,3.6,13.1,6.6,19.2,10.8
						C182.9,185.9,184.2,183.7,182.9,182.8L182.9,182.8z"/>
				</g>
			</g>
			<g>
				<g>
					<path fill="#FFFFFF" d="M193.8,166.9c-3.2-2-6.3-4-9.5-6c-2.1-1.3-7.3-3.5-8.2-5.7c-0.9-2.2,1.2-7,1.8-9.4
						c1-3.4,2.1-6.8,3.3-10.2c0.5-1.5-1.9-2.2-2.4-0.7c-2.4,6.8-4.3,13.6-5.8,20.7c-0.1,0.6,0.1,1.1,0.6,1.4c6.3,4,12.6,8,18.9,12
						C193.9,169.9,195.1,167.7,193.8,166.9L193.8,166.9z"/>
				</g>
			</g>
			<g>
				<g>
					<path fill="#FFFFFF" d="M208.8,159c-2-1.1-4-2.2-5.9-3.3c-3.1-1.9-5.9-2.5-4.7-7.4c1-4,2.9-7.8,4-11.8c0.4-1.6-2-2.2-2.4-0.7
						c-0.9,3.4-1.9,6.7-3.2,9.9c-0.8,2-2.5,4.4-1.7,6.7c0.5,1.5,1.9,2.3,3.2,3.2c3.1,2,6.3,3.8,9.5,5.6
						C209,161.9,210.2,159.7,208.8,159L208.8,159z"/>
				</g>
			</g>
			<g>
				<g>
					<path fill="#FFFFFF" d="M149.7,167.8c-1.1-5.4-2.6-10.7-4.7-15.8c-0.6-1.5-3-0.8-2.4,0.7c2,5.1,3.6,10.4,4.7,15.8
						C147.6,170.1,150,169.4,149.7,167.8L149.7,167.8z"/>
				</g>
			</g>
			<g>
				<g>
					<path fill="#FFFFFF" d="M143.4,151.2c5.8-2.1,11.6-4.2,17.4-6.3c1.5-0.5,0.9-3-0.7-2.4c-5.8,2.1-11.6,4.2-17.4,6.3
						C141.3,149.3,141.9,151.7,143.4,151.2L143.4,151.2z"/>
				</g>
			</g>
			<g>
				<g>
					<path fill="#FFFFFF" d="M138.9,166.5c-0.2-3.2-0.5-6.4-1-9.6c-0.5-3.2-2.3-6.8-2.4-10c-0.2-3.2,4.8-4.1,7.5-5.3
						c3.6-1.6,7.2-3.2,10.7-4.8c1.5-0.7,0.2-2.8-1.3-2.2c-4.2,1.9-8.4,3.7-12.5,5.6c-2,0.9-6.2,1.7-7.2,4.1c-0.8,2,0.9,5,1.4,6.9
						c1.3,5,2,10.1,2.3,15.3C136.5,168.1,139,168.1,138.9,166.5L138.9,166.5z"/>
				</g>
			</g>
			<g>
				<g>
					<path fill="#FFFFFF" d="M126.6,154.4c-0.3-2.8-0.7-5.6-1-8.4c-0.4-3.3-2-6.8,1.4-8.7c4.3-2.4,9.5-3.5,14.1-5.4
						c1.5-0.6,0.8-3-0.7-2.4c-3.5,1.5-7.2,2.8-10.8,4.1c-1.9,0.7-4.9,1.3-6.4,2.7c-1.4,1.4-1.1,2.7-0.8,4.7c0.5,4.5,1.1,9,1.6,13.5
						C124.3,156,126.8,156,126.6,154.4L126.6,154.4z"/>
				</g>
			</g>
		</g>
	</g>
	<g>
		<g>
			<g>
				<g>
					<path fill="#FFFFFF" d="M113.8,129.2c-37.1,21.4-74.7,42.1-111.4,64.3c-1.4,0.8-0.1,3,1.3,2.2c36.7-22.2,74.3-42.8,111.4-64.3
						C116.5,130.5,115.2,128.4,113.8,129.2L113.8,129.2z"/>
				</g>
			</g>
			<g>
				<g>
					<path fill="#FFFFFF" d="M51.4,206.3c7.4-16.2,13.3-33,19.3-49.7c0.2-0.6-0.2-1.4-0.9-1.5c-18.3-3-36.8-6-53.8-13.8
						c-1.5-0.7-2.7,1.5-1.3,2.2c17.2,7.9,35.8,10.9,54.4,14c-0.3-0.5-0.6-1-0.9-1.5C62.4,172.4,56.5,189,49.2,205
						C48.6,206.5,50.7,207.7,51.4,206.3L51.4,206.3z"/>
				</g>
			</g>
			<g>
				<g>
					<path fill="#FFFFFF" d="M28.7,200c3.2-8.1,6.3-16.2,9.5-24.3c0.2-0.6-0.3-1.4-0.9-1.5c-8-1.8-15.7-4.3-23.1-7.8
						c-1.4-0.7-2.7,1.5-1.3,2.2c7.6,3.6,15.5,6.3,23.7,8.1c-0.3-0.5-0.6-1-0.9-1.5c-3.2,8.1-6.3,16.2-9.5,24.3
						C25.7,200.8,28.1,201.4,28.7,200L28.7,200z"/>
				</g>
			</g>
			<g>
				<g>
					<path fill="#FFFFFF" d="M15.4,201c1.3-4.8,2.8-9.6,4.6-14.2c0.2-0.6-0.3-1.4-0.9-1.5c-4.7-1.5-9.4-3-14.1-4.5
						c-1.5-0.5-2.2,1.9-0.7,2.4c4.7,1.5,9.4,3,14.1,4.5c-0.3-0.5-0.6-1-0.9-1.5c-1.8,4.7-3.3,9.4-4.6,14.2
						C12.6,201.9,15,202.6,15.4,201L15.4,201z"/>
				</g>
			</g>
			<g>
				<g>
					<path fill="#FFFFFF" d="M45.9,197c3.6-2.4,7.3-4.9,10.9-7.3c-0.6-0.1-1.1-0.3-1.7-0.4c2.3,4.7,5.2,9.1,8.6,13.1
						c1.1,1.2,2.8-0.6,1.8-1.8c-3.3-3.8-6-8-8.3-12.6c-0.3-0.6-1.2-0.8-1.7-0.4c-3.6,2.4-7.3,4.9-10.9,7.3
						C43.3,195.7,44.5,197.9,45.9,197L45.9,197z"/>
				</g>
			</g>
			<g>
				<g>
					<path fill="#FFFFFF" d="M45.3,183.9c6.1-4.3,12.7-7.3,19.2-10.8c-0.6-0.1-1.1-0.3-1.7-0.4c3.1,7,8.1,12.9,12.8,18.8
						c1,1.2,2.8-0.5,1.8-1.8c-4.7-5.8-9.5-11.4-12.5-18.3c-0.3-0.6-1.2-0.7-1.7-0.4c-6.5,3.6-13.1,6.6-19.2,10.8
						C42.7,182.6,43.9,184.8,45.3,183.9L45.3,183.9z"/>
				</g>
			</g>
			<g>
				<g>
					<path fill="#FFFFFF" d="M34.4,168c6.3-4,12.6-8,18.9-12c0.5-0.3,0.7-0.8,0.6-1.4c-1.5-7-3.4-13.9-5.8-20.7
						c-0.5-1.5-3-0.9-2.4,0.7c1.2,3.4,2.3,6.8,3.3,10.2c0.6,2.3,2.7,7.2,1.8,9.4c-1,2.3-6.1,4.3-8.2,5.7c-3.2,2-6.3,4-9.5,6
						C31.8,166.7,33,168.8,34.4,168L34.4,168z"/>
				</g>
			</g>
			<g>
				<g>
					<path fill="#FFFFFF" d="M19.3,160c3-1.6,5.9-3.3,8.8-5.1c1.5-0.9,3.3-1.9,3.9-3.6c0.6-1.9-0.4-3.5-1.1-5.2
						c-1.5-3.7-2.8-7.5-3.8-11.4c-0.4-1.6-2.8-0.9-2.4,0.7c1,4,3,7.8,4,11.8c1.2,4.8-1.6,5.5-4.7,7.4c-1.9,1.2-3.9,2.3-5.9,3.3
						C16.7,158.7,17.9,160.8,19.3,160L19.3,160z"/>
				</g>
			</g>
			<g>
				<g>
					<path fill="#FFFFFF" d="M79.6,167.4c1.1-5.4,2.6-10.7,4.7-15.8c0.6-1.5-1.8-2.1-2.4-0.7c-2,5.1-3.6,10.4-4.7,15.8
						C76.8,168.3,79.3,169,79.6,167.4L79.6,167.4z"/>
				</g>
			</g>
			<g>
				<g>
					<path fill="#FFFFFF" d="M84.1,147.7c-5.8-2.1-11.6-4.2-17.4-6.3c-1.5-0.5-2.2,1.9-0.7,2.4c5.8,2.1,11.6,4.2,17.4,6.3
						C85,150.6,85.6,148.2,84.1,147.7L84.1,147.7z"/>
				</g>
			</g>
			<g>
				<g>
					<path fill="#FFFFFF" d="M90.5,165.4c0.2-4.9,0.9-9.7,2-14.4c0.5-2.1,2.6-5.6,1.7-7.8c-0.9-2.1-4.5-2.8-6.3-3.7
						c-4.5-2-9-4-13.4-6c-1.5-0.7-2.7,1.5-1.3,2.2c3.6,1.6,7.2,3.2,10.7,4.8c2.6,1.2,7.6,2.2,7.5,5.3c-0.2,3.2-1.9,6.8-2.4,10
						c-0.5,3.2-0.8,6.4-1,9.6C87.9,167,90.4,167,90.5,165.4L90.5,165.4z"/>
				</g>
			</g>
			<g>
				<g>
					<path fill="#FFFFFF" d="M99.4,155.4c0.6-3.9,2.3-7.5,3.6-11.2c0.7-2,2.5-5.9,1.4-8.1c-1-1.9-4-2.4-5.8-2.8
						c-4.1-1-8.2-1.3-12.1-2.8c-1.5-0.6-2.2,1.8-0.7,2.4c3.6,1.4,15.6,1.4,16.2,6.1c0.3,2.2-1.9,5.9-2.7,8c-1,2.6-1.9,5.1-2.3,7.8
						C96.7,156.3,99.1,157,99.4,155.4L99.4,155.4z"/>
				</g>
			</g>
		</g>
		<g>
			<g>
				<g>
					<path fill="#FFFFFF" d="M115,131.4c37.1-21.5,73.8-43.7,111.3-64.4c1.4-0.8,0.1-2.9-1.3-2.2c-37.5,20.7-74.2,43-111.3,64.4
						C112.3,130,113.6,132.2,115,131.4L115,131.4z"/>
				</g>
			</g>
			<g>
				<g>
					<path fill="#FFFFFF" d="M211.7,111.1c-17.5-1.7-34.7-4.9-52-8c0.3,0.5,0.6,1,0.9,1.5c6.6-17.6,13.3-35.3,15.1-54.2
						c0.2-1.6-2.3-1.6-2.5,0c-1.8,18.7-8.5,36.1-15,53.5c-0.2,0.6,0.3,1.4,0.9,1.5c17.5,3.2,35,6.4,52.7,8.1
						C213.3,113.8,213.2,111.3,211.7,111.1L211.7,111.1z"/>
				</g>
			</g>
			<g>
				<g>
					<path fill="#FFFFFF" d="M218.2,88.4c-8.6-1.3-17.2-2.6-25.8-3.9c0.3,0.5,0.6,1,0.9,1.5c2.5-8,4.1-16.2,4.9-24.6
						c0.1-1.6-2.4-1.6-2.5,0c-0.7,8.2-2.3,16.1-4.8,23.9c-0.2,0.6,0.2,1.4,0.9,1.5c8.6,1.3,17.2,2.6,25.8,3.9
						C219.1,91,219.8,88.6,218.2,88.4L218.2,88.4z"/>
				</g>
			</g>
			<g>
				<g>
					<path fill="#FFFFFF" d="M225.8,77.3c-4.8-1.3-9.7-2.3-14.6-3.1c0.3,0.5,0.6,1,0.9,1.5c1.1-4.8,2.1-9.6,3.2-14.5
						c0.3-1.6-2.1-2.2-2.4-0.7c-1.1,4.8-2.1,9.6-3.2,14.5c-0.1,0.6,0.2,1.4,0.9,1.5c4.9,0.8,9.8,1.8,14.6,3.1
						C226.6,80.2,227.3,77.8,225.8,77.3L225.8,77.3z"/>
				</g>
			</g>
			<g>
				<g>
					<path fill="#FFFFFF" d="M205.2,102.1c-3.9,1.9-7.9,3.9-11.8,5.8c-0.6,0.3-0.8,1.2-0.4,1.7c2.8,4.2,5.1,8.6,6.7,13.4
						c0.5,1.5,2.9,0.9,2.4-0.7c-1.7-5-4-9.6-7-14c-0.1,0.6-0.3,1.1-0.4,1.7c3.9-1.9,7.9-3.9,11.8-5.8
						C207.9,103.5,206.6,101.3,205.2,102.1L205.2,102.1z"/>
				</g>
			</g>
			<g>
				<g>
					<path fill="#FFFFFF" d="M194.1,94.9c-6.7,3.2-12.6,7.4-19,11.2c-0.5,0.3-0.9,1.2-0.4,1.7c4.4,6,6.9,13,9.6,19.9
						c0.6,1.5,3,0.8,2.4-0.7c-2.7-7.1-5.3-14.4-9.8-20.5c-0.1,0.6-0.3,1.1-0.4,1.7c6.3-3.9,12.2-8.1,19-11.2
						C196.8,96.4,195.5,94.3,194.1,94.9L194.1,94.9z"/>
				</g>
			</g>
			<g>
				<g>
					<path fill="#FFFFFF" d="M185.8,77.6c-3.3,1.7-6.6,3.5-9.9,5.2c-2.2,1.1-6.7,4.6-9,4.3c-2.4-0.3-5.5-4.5-7.2-6.3
						c-2.5-2.6-4.9-5.2-7.2-7.9c-1-1.2-2.8,0.5-1.8,1.8c4.6,5.5,9.6,10.6,15,15.3c0.4,0.4,1,0.5,1.5,0.2c6.6-3.5,13.2-7,19.9-10.4
						C188.5,79,187.2,76.8,185.8,77.6L185.8,77.6z"/>
				</g>
			</g>
			<g>
				<g>
					<path fill="#FFFFFF" d="M186.5,60.5c-4.5,2.8-10,7.6-15.1,3.1c-2.8-2.5-5-6-7.7-8.7c-1.1-1.1-2.9,0.6-1.8,1.8
						c2.8,2.8,5.5,5.7,7.9,8.8c0.9,1.2,1.9,3.1,3.5,3.6c4.1,1.3,11.3-4.6,14.5-6.5C189.1,61.9,187.8,59.7,186.5,60.5L186.5,60.5z"/>
				</g>
			</g>
			<g>
				<g>
					<path fill="#FFFFFF" d="M164.6,116.2c-5.2-1.8-10.6-3.1-16-3.9c-1.6-0.2-2.3,2.2-0.7,2.4c5.5,0.8,10.8,2.1,16,3.9
						C165.5,119.1,166.1,116.7,164.6,116.2L164.6,116.2z"/>
				</g>
			</g>
			<g>
				<g>
					<path fill="#FFFFFF" d="M147,113.4c1.1-6.1,2.2-12.2,3.2-18.3c0.3-1.6-2.1-2.2-2.4-0.7c-1.1,6.1-2.2,12.2-3.2,18.3
						C144.3,114.3,146.7,115,147,113.4L147,113.4z"/>
				</g>
			</g>
			<g>
				<g>
					<path fill="#FFFFFF" d="M158,124.9c-5.8-3-11.8-4.4-17.9-6.7c-2.4-0.9-2.1-0.6-2.2-3.4c-0.1-1.9,0.4-4,0.6-5.9
						c0.4-3.9,0.8-7.8,1.2-11.7c0.2-1.6-2.3-1.6-2.5,0c-0.5,5.2-1.1,10.4-1.6,15.6c-0.2,1.8-1.1,4.9,0.2,6.5c1.4,1.6,5.2,1.7,7,2.2
						c4.9,1.4,9.5,3.3,14,5.6C158.2,127.8,159.5,125.7,158,124.9L158,124.9z"/>
				</g>
			</g>
			<g>
				<g>
					<path fill="#FFFFFF" d="M141.4,129.5c-2.3-1-4.7-2-7-3c-1.7-0.7-5.8-1.6-7-3c-1.5-1.6-0.4-4.7-0.2-6.7c0.3-3,0.7-5.9,1-8.9
						c0.2-1.6-2.3-1.6-2.5,0c-0.4,3.6-0.8,7.1-1.2,10.7c-0.2,1.7-1,4.3,0,5.9c1.1,1.6,3.9,2.2,5.5,2.9c3.4,1.4,6.8,2.9,10.2,4.3
						C141.6,132.3,142.9,130.1,141.4,129.5L141.4,129.5z"/>
				</g>
			</g>
		</g>
	</g>
</g>
</svg>
