<?xml version="1.0" encoding="utf-8"?>
<!-- Generator: Adobe Illustrator 18.1.0, SVG Export Plug-In . SVG Version: 6.00 Build 0)  -->
<svg version="1.1" id="Layer_1" xmlns="http://www.w3.org/2000/svg" xmlns:xlink="http://www.w3.org/1999/xlink" x="0px" y="0px"
	 viewBox="0 0 226.9 202.7" enable-background="new 0 0 226.9 202.7" xml:space="preserve">
<path fill="#FFFFFF" d="M222.8,104.1l-25.7-1.5l14.1-12.9c1.8-1.6,1.9-4.4,0.3-6.1c-1.6-1.8-4.3-1.9-6.1-0.3L185.1,102l-20-1.1
	l14.2-13c1-0.9,1.5-2.1,1.4-3.4c0-1-0.4-2-1.1-2.8c-1.6-1.8-4.3-1.9-6.1-0.3l-7.9,7.3l-12.5,11.5l-22.9-1.3l0.3-0.3l4.6-5.8l-8.9-1
	l18.1-27.4l25.9-4.3c2.3-0.4,4-2.6,3.6-5c-0.4-2.4-2.6-4-5-3.6l-18,3l11.5-17.3l25.4-4.2c2.3-0.4,3.9-2.6,3.6-5
	c-0.4-2.4-2.6-4-4.9-3.6l-17.5,2.9l9.4-14.1c1.3-2,0.8-4.7-1.2-6c-2-1.3-4.7-0.8-6,1.2l-10,15.1l-4.4-20c-0.5-2.3-2.8-3.8-5.2-3.3
	c-1.9,0.4-3.3,2.1-3.4,4c0,0.4,0,0.8,0.1,1.2l6.2,28.1L143.4,50l-4.3-19.4c-0.5-2.3-2.8-3.8-5.1-3.3c-1.9,0.4-3.2,2.1-3.4,4
	c0,0.4,0,0.8,0.1,1.2l6.1,27.5l-16.2,24.5l-1.4-6l-7.1,7.1l-4.3-7.5l-0.3,3.7L97.3,63.3l8.6-25.1c0.8-2.3-0.4-4.8-2.6-5.5
	c-2.3-0.8-4.7,0.4-5.5,2.7l-6.1,17.8l-10-18l8.8-25.4c0.8-2.3-0.4-4.7-2.7-5.5c-2.3-0.8-4.7,0.4-5.5,2.7L76,25.1l-11.7-21
	c-1.2-2.1-3.8-2.8-5.9-1.7c-1.3,0.8-2.1,2.1-2.2,3.5c0,0.8,0.1,1.6,0.5,2.4l11.3,20.3l-18.3-5.1c-2.3-0.7-4.7,0.7-5.3,3
	c-0.1,0.3-0.1,0.6-0.2,0.9c-0.1,2,1.1,3.9,3.1,4.4l26.6,7.5L84,57.2L65.4,52c-2.3-0.6-4.7,0.7-5.3,3c-0.1,0.3-0.1,0.6-0.2,0.9
	c-0.1,2,1.1,3.9,3.1,4.4l26.9,7.6l8.9,16l2.1,6L89,89.2l7.4,7.8L75,95.8L58.6,75.2c-1.5-1.9-4.2-2.2-6.1-0.7
	c-1.9,1.5-2.2,4.2-0.7,6.1l11.5,14.5L43,94L26.6,73.4c-1.5-1.9-4.2-2.2-6.1-0.7c-1.8,1.5-2.2,4.2-0.7,6.1l11.6,14.5L4.6,91.8
	c-2.4-0.1-4.4,1.7-4.6,4.1c-0.1,2.4,1.7,4.5,4,4.6l26.8,1.5l-14.5,13.2c-0.9,0.8-1.4,1.9-1.4,3c-0.1,1.1,0.3,2.3,1.1,3.2
	c1.6,1.8,4.3,1.9,6.1,0.3l20.8-19l19.9,1.1l-14.5,13.3c-0.9,0.8-1.3,1.9-1.4,3c0,0.6,0,1.2,0.2,1.7c0.2,0.5,0.5,1,0.9,1.5
	c1.6,1.8,4.3,1.9,6.1,0.3l5.8-5.3l15-13.7l20.5,1.2l-2.7,3.4l-3.7,4.6l10.6-0.1l-3.8,7.2l0.9-0.3l-8.6,13L60,139.3
	c-2,0.4-3.3,2.1-3.4,4c0,0.4,0,0.7,0.1,1.1c0.5,2.4,2.7,3.9,5.1,3.4l19.8-4.1l-11.9,18l-26,5.4c-2,0.4-3.3,2.1-3.5,4
	c0,0.4,0,0.7,0.1,1.1c0.5,2.3,2.7,3.9,5.1,3.4l17.5-3.6l-13.3,20.1c-0.4,0.7-0.7,1.4-0.7,2.1c-0.1,1.5,0.6,3,1.9,3.9
	c2,1.3,4.6,0.8,6-1.2l14-21.2l5.1,19.6c0.6,2.3,3,3.7,5.3,3.1c2.3-0.6,3.7-3,3.1-5.3L77,166l10.6-16l4.6,17.4c0.6,2.3,3,3.7,5.3,3.1
	c2.3-0.6,3.7-3,3.1-5.3L94,140.3l11.7-17.6l0.2,3.7l4.3-7.6l6.2,7.8l2.4-6.9l12.5,22.5l-8.8,26c-0.1,0.4-0.2,0.8-0.2,1.1
	c-0.1,1.9,1,3.7,2.9,4.4c2.2,0.8,4.7-0.4,5.5-2.7l6.3-18.6l9.9,17.8l-8.9,26.2c-0.1,0.4-0.2,0.8-0.2,1.1c-0.1,1.9,1,3.7,2.9,4.4
	c2.3,0.8,4.7-0.5,5.5-2.7l6.4-18.8l11.2,20.1c1.2,2.1,3.8,2.8,5.9,1.6c2.1-1.2,2.8-3.8,1.7-5.9l-10.3-18.5l17.5,4.8
	c2.3,0.6,4.7-0.7,5.3-3.1c0.6-2.3-0.7-4.7-3-5.3l-25.8-7.1l-9.8-17.6l17.8,4.9c2.3,0.6,4.7-0.7,5.3-3.1c0.6-2.3-0.7-4.7-3-5.3
	l-26-7.1l-13.7-24.6l8.2,0l-4.1-6.6l22.8,1.3l16.7,20.9c1.5,1.9,4.2,2.2,6.1,0.7c1.9-1.5,2.2-4.2,0.7-6.1L164,109.5l20.3,1.2
	l16.7,21c1.5,1.9,4.2,2.2,6,0.7c1.9-1.5,2.2-4.2,0.7-6.1l-11.8-14.9l26.4,1.5c2.4,0.1,4.4-1.7,4.6-4.1
	C227,106.3,225.2,104.3,222.8,104.1z"/>
</svg>
