<?xml version="1.0" encoding="utf-8"?>
<!-- Generator: Adobe Illustrator 18.1.0, SVG Export Plug-In . SVG Version: 6.00 Build 0)  -->
<svg version="1.1" id="Layer_1" xmlns="http://www.w3.org/2000/svg" xmlns:xlink="http://www.w3.org/1999/xlink" x="0px" y="0px"
	 viewBox="0 0 226.9 227.2" enable-background="new 0 0 226.9 227.2" xml:space="preserve">
<g>
	<path fill="#FFFFFF" d="M212.6,62c1.1-1.9,0.4-4.4-1.5-5.5c-1-0.5-2-0.6-3-0.4c-1,0.3-1.9,0.9-2.5,1.9l-0.8,1.5
		c-0.6-0.4-1.4-0.5-2.2-0.3l-29.8,8.2l15.5-27.1c0.3-0.6,0.4-1.2,0.4-1.8l1.4-0.4c2.1-0.6,3.4-2.8,2.8-4.9c-0.6-2.1-2.8-3.4-4.9-2.8
		l-25.8,7l8.1-14.1c1.2-2.1,0.5-4.8-1.6-6c-1.1-0.6-2.3-0.7-3.3-0.4c-1.1,0.3-2.1,1-2.7,2.1l-8.1,14.2l-7.3-26.1
		c-0.6-2.1-2.8-3.4-4.9-2.8c0,0,0,0,0,0c-2.1,0.6-3.4,2.8-2.8,5l0.5,1.7c-0.7,0.2-1.3,0.7-1.7,1.4L122.8,39l-8.2-30.2
		c-0.2-0.6-0.6-1.2-1.1-1.5l0.7-1.2c1.1-1.9,0.4-4.4-1.5-5.5c-1.9-1.1-4.4-0.4-5.5,1.5L94,25.3L89.7,9.6c-0.6-2.3-3-3.7-5.4-3.1
		c-2.3,0.6-3.7,3-3.1,5.4l4.3,15.8L61.9,14.3c-1-0.5-2-0.6-3-0.4c-1,0.3-1.9,0.9-2.4,1.9c-1.1,1.9-0.4,4.4,1.5,5.5l1.5,0.8
		c-0.4,0.6-0.5,1.4-0.3,2.2l8.2,29.9L40.3,38.7c-0.6-0.3-1.2-0.4-1.8-0.4L38,37c-0.6-2.1-2.8-3.4-4.9-2.8c-2.1,0.6-3.4,2.8-2.8,4.9
		l7,25.9l-14.1-8.1c-1-0.6-2.2-0.7-3.3-0.4c-1.1,0.3-2.1,1-2.7,2.1c-1.2,2.1-0.5,4.8,1.6,6L33,72.6L6.9,79.9c-2.1,0.6-3.4,2.8-2.8,5
		c0.6,2.1,2.8,3.4,5,2.8l1.6-0.5c0.2,0.7,0.7,1.3,1.4,1.7l26.8,15.3l-30.1,8.2c-0.6,0.2-1.2,0.6-1.5,1L6,112.8
		c-1-0.6-2.1-0.7-3.1-0.4c-1,0.3-1.9,0.9-2.4,1.9c-1.1,1.9-0.4,4.4,1.5,5.5l23.2,13.3l-15.7,4.3c-2.3,0.6-3.7,3-3.1,5.4
		c0.6,2.3,3,3.7,5.4,3.1l15.8-4.3l-13.3,23.6c-1.1,1.9-0.4,4.4,1.5,5.5c1.9,1.1,4.4,0.4,5.5-1.5l0.8-1.5c0.6,0.4,1.4,0.5,2.2,0.3
		l29.8-8.2l-15.5,27.1c-0.3,0.6-0.4,1.2-0.3,1.8l-1.4,0.4c-2.1,0.6-3.4,2.8-2.8,4.9c0.6,2.2,2.8,3.4,4.9,2.8l25.8-7L56.8,204
		c-1.2,2.1-0.5,4.8,1.6,6c2.1,1.2,4.8,0.5,6-1.6l8.1-14.2l7.3,26.1c0.6,2.1,2.8,3.4,5,2.8c2.1-0.6,3.4-2.8,2.8-5l-0.5-1.7
		c0.7-0.2,1.3-0.7,1.7-1.4l15.3-26.9l8.2,30.2c0.2,0.6,0.6,1.2,1,1.5l-0.7,1.2c-1.1,1.9-0.4,4.4,1.5,5.5c1.9,1.1,4.4,0.4,5.5-1.5
		l13.3-23.2l4.3,15.7c0.6,2.3,3,3.7,5.4,3.1c2.3-0.6,3.7-3.1,3.1-5.4l-4.3-15.8l23.6,13.3c1.9,1.1,4.4,0.4,5.5-1.5
		c1.1-1.9,0.4-4.4-1.5-5.5l-1.5-0.8c0.3-0.6,0.5-1.4,0.3-2.2l-8.2-29.9l27.1,15.5c0.6,0.3,1.2,0.4,1.8,0.3l0.4,1.4
		c0.6,2.1,2.8,3.4,4.9,2.8c2.1-0.6,3.4-2.8,2.8-4.9l-7-25.8l14.1,8.1c2.1,1.2,4.8,0.5,6-1.6c1.2-2.1,0.5-4.8-1.6-6l-14.2-8.1
		l26.1-7.3c2.1-0.6,3.4-2.8,2.8-5c-0.6-2.1-2.8-3.4-4.9-2.8c0,0,0,0,0,0l-1.7,0.5c-0.2-0.7-0.7-1.3-1.4-1.7L188,122.9l30.1-8.2
		c0.6-0.2,1.2-0.6,1.5-1l1.2,0.7c1.9,1.1,4.4,0.4,5.5-1.5c1.1-1.9,0.4-4.4-1.5-5.5l-23.2-13.3l15.7-4.3c2.3-0.6,3.7-3,3.1-5.4
		c-0.6-2.3-3-3.7-5.4-3.1l-15.8,4.3L212.6,62z M180.8,118.8l-22.6-12.9l32.5-8.8l22.5,12.9L180.8,118.8z M150.2,108.1l22.6,12.9
		l-25.4,6.9L124.8,115L150.2,108.1z M143.3,135.7l6.9,25.1l-22.9-13.1l-6.8-25.1L143.3,135.7z M118.9,150.4L106.1,173l-6.9-25.5
		l12.9-22.5L118.9,150.4z M91.4,143.5l-25.1,6.9l13.1-22.9l25-6.8L91.4,143.5z M76.7,119.1l-22.6-12.9l25.4-6.9l22.5,12.9
		L76.7,119.1z M83.6,91.5l-6.9-25.1l22.9,13.1l6.8,25.1L83.6,91.5z M108,76.8l12.9-22.6l6.9,25.4l-12.9,22.5L108,76.8z M135.5,83.7
		l25.1-6.9l-13.1,22.9l-25,6.8L135.5,83.7z M184.1,149L154.5,132l25.4-6.9l29.4,16.8L184.1,149z M157.4,164.9l-6.9-25.1l29.2,16.8
		l6.8,25.1L157.4,164.9z M138.4,188.6l-8.9-32.9l22.9,13.1l8.9,32.7L138.4,188.6z M108.2,181l12.9-22.6l8.8,32.5L117,213.5
		L108.2,181z M78.1,184.3L95,154.7l6.9,25.5l-16.8,29.4L78.1,184.3z M62.2,157.6l25.1-6.9L70.5,180l-25,6.8L62.2,157.6z M38.5,138.6
		l32.8-8.9l-13.1,22.9l-32.6,8.9L38.5,138.6z M46.1,108.4l22.6,12.9l-32.5,8.8l-22.5-12.9L46.1,108.4z M42.8,78.2l29.5,16.9
		l-25.4,6.9L17.5,85.3L42.8,78.2z M69.5,62.2l6.9,25.1L47.2,70.6l-6.8-25.1L69.5,62.2z M88.5,38.6l8.9,32.9L74.5,58.4l-8.9-32.7
		L88.5,38.6z M118.7,46.2l-12.9,22.6l-8.8-32.5l12.9-22.5L118.7,46.2z M148.8,42.9l-16.9,29.6L124.9,47l16.8-29.4L148.8,42.9z
		 M164.7,69.6l-25.1,6.9l16.7-29.3l25-6.8L164.7,69.6z M201.2,65.7l-12.9,22.9l-32.8,8.9l13.1-22.9L201.2,65.7z"/>
</g>
</svg>
