<?xml version="1.0" encoding="utf-8"?>
<!-- Generator: Adobe Illustrator 18.1.0, SVG Export Plug-In . SVG Version: 6.00 Build 0)  -->
<svg version="1.1" id="Layer_1" xmlns="http://www.w3.org/2000/svg" xmlns:xlink="http://www.w3.org/1999/xlink" x="0px" y="0px"
	 viewBox="0 0 226.9 227.6" enable-background="new 0 0 226.9 227.6" xml:space="preserve">
<path fill="#FFFFFF" d="M142,191.7l9.6,24.1c0.4,1.1,1.7,1.7,2.9,1.2c1.2-0.5,1.7-1.8,1.3-2.9l-9.6-24.1l19,16.7l18.1-2.2L172.3,190
	l-27.2-2.6l-11.6-29.3l26.5,23.4l24-2.9l-14.4-19.4l-37.1-3.5L120.3,125c2.7-1.6,4.7-4.2,5.6-7.1l32.6,4.8l11.9,35.4l22.3,9.5
	l-2.7-24.1l-28.8-20.4l31.2,4.6l8.7,25.9l16.7,7.2l-2.1-18l-20.6-14.6l25.6,3.8c1.2,0.2,2.3-0.7,2.5-1.9c0.2-1.2-0.7-2.3-1.9-2.5
	l-25.6-3.8l23.9-8.1l7.2-16.7l-18.1,2L193,123.2l-31.2-4.6l33.5-11.3l9.5-22.3l-24.1,2.7l-21.6,30.4l-32.6-4.8c0-1.5-0.3-3-0.9-4.5
	c-0.6-1.5-1.5-2.8-2.5-3.9l20.4-25.8l36.6,7.3L199.6,72l-22.2-9.7l-32.1,14.7l19.5-24.7l26.8,5.4l14.5-10.9l-16.7-7.2l-22.9,10.5
	l16-20.3c0.8-0.9,0.6-2.4-0.3-3.1c-1-0.7-2.4-0.6-3.1,0.4l-16.1,20.3l5-24.8L157.2,8.1L150,24.8l11.4,24.9l-19.6,24.7l7-34.6
	l-14.5-19.4l-9.7,22.2l15.6,33.9l-20.4,25.9c-2.7-1.5-5.9-2-9-1.3L98.6,70.4l24.6-28l-2.8-24l0,0l-0.1-0.4l-19.4,14.4l-3.3,35.3
	L86,38.6L104,18l-2.1-18L87.3,10.8l-2.4,25.1l-9.6-24.1c-0.4-1.1-1.8-1.7-2.9-1.2c-1.1,0.4-1.7,1.8-1.2,2.9l9.6,24.1l-19-16.7
	l-18,2.2l10.8,14.6l27.3,2.6L93.3,69L66.9,45.8l-24.1,2.8l0.3,0.3l-0.2,0.1l14.4,19.4L94.5,72l12.1,30.6c-2.8,1.7-4.7,4.2-5.6,7.1
	L68.4,105L56.5,69.6l-22.3-9.5l2.8,24.1l28.8,20.4L34.5,100l-8.8-25.9L9.1,66.9l2,18.1l20.6,14.6L6.1,95.8c-1.2-0.2-2.3,0.7-2.5,1.9
	c-0.2,1.2,0.7,2.4,1.8,2.5l25.7,3.8l-23.9,8.1L0,128.8l18.1-2.1l15.9-22.3l31.1,4.6l-33.4,11.3l-9.5,22.3l24.1-2.8l21.6-30.4
	l32.6,4.8c0,1.5,0.3,3.1,0.9,4.6c0.6,1.5,1.4,2.8,2.5,3.9l-20.4,25.8l-36.6-7.3l-19.4,14.5l22.2,9.7l32.1-14.7L62,175.2l-26.9-5.4
	l-14.5,10.9l16.7,7.2l22.9-10.5l-16.1,20.3c-0.7,1-0.6,2.4,0.4,3.1c0.9,0.8,2.3,0.6,3.1-0.4l16.1-20.3l-5,24.8l10.9,14.5l7.2-16.7
	L65.5,178l19.5-24.7l-6.9,34.6l14.5,19.4l9.7-22.2l-15.6-33.9l20.4-25.8c2.7,1.5,5.9,2,9,1.3l12.1,30.6l-24.6,28.1l2.8,24L126,195
	l3.3-35.2l11.6,29.3l-18.1,20.5l2.2,18l14.6-10.8L142,191.7z"/>
</svg>
