<?xml version="1.0" encoding="utf-8"?>
<!-- Generator: Adobe Illustrator 18.1.0, SVG Export Plug-In . SVG Version: 6.00 Build 0)  -->
<svg version="1.1" id="Layer_1" xmlns="http://www.w3.org/2000/svg" xmlns:xlink="http://www.w3.org/1999/xlink" x="0px" y="0px"
	 viewBox="0 0 226.9 228.4" enable-background="new 0 0 226.9 228.4" xml:space="preserve">
<path fill="#FFFFFF" d="M26.4,177.6l2,6.4l16.1-5l-13.6,13.7l4.7,4.7L48.9,184L44,199.7l6.3,2l8.6-27.9l9.1-9.2L61.1,187l6.3,2
	l8.9-28.8L97.8,150l-1.1,2.5l-8.8,8.1l1.1,1.2l6.1-5.6l-2.8,6.5l-7,6.5l1.1,1.2l4.4-4l-2.8,6.5l1.5,0.7l3.1-7.3l0.4,5.7l1.7-0.1
	l-0.7-8.9l2.8-6.6l0.6,7.6l1.7-0.1L98.3,153l1-2.4l7.8,22L93.3,199l5.9,3.1l11-20.9v13l-13.6,26l5.9,3.1l7.7-14.8v19.9h6.6v-19.9
	l7.7,14.8l5.9-3.1l-13.6-26v-13l11,20.9l5.9-3.1l-13.9-26.5l7.8-22l1.5,3.4l-0.4,12l1.7,0l0.2-8.5l2.7,6.3l-0.3,10.1l1.7,0l0.2-6.6
	l4.2,9.7l1.5-0.7l-4.1-9.3l3.9,3.3l1.1-1.3l-6.5-5.4l-3-6.8l5.6,4.7l1.1-1.3l-8.2-6.9l-1.4-3.3l20.3,9.7l9,29.3l6.3-2l-7.2-23.4
	l0.4,0.2l8.6,8.7l9,29.2l6.3-2l-5.3-17.1l14.6,14.7l4.7-4.7l-13.2-13.3l14.7,4.6l2-6.4l-26.8-8.4l-9.1-9.2l21.3,6.7l2-6.4l-27.8-8.7
	l-10.3-21.8l3.1,1.2l7.9,8.3l1.2-1.2l-5.5-5.7l6.4,2.5l6.5,6.8l1.2-1.2l-4-4.2l9.9,3.8l0.6-1.6l-10.8-4.1l5.7-0.6l-0.2-1.7l-9,1
	l-6.9-2.6l7.9-0.8l-0.2-1.7l-11.1,1.2l-2-0.8l23.2-8.3l27.3,14.5l3.1-5.9l-20.8-11h12.9l25.8,13.7l3.1-5.9l-14.7-7.8h17.4v-6.7
	h-17.4l14.7-7.8l-3.1-5.9l-25.8,13.7h-12.9l20.8-11l-3.1-5.9l-27.3,14.5l-23.3-8.4l5.5-2.4l11.7,0.6l0.1-1.7l-8.5-0.4l5.9-2.6
	l10.3,0.5l0.1-1.7l-7.1-0.4l11.9-5.3l-0.7-1.5l-10.7,4.8l3-3.4l-1.3-1.1l-5.3,6.1l-7.1,3.2l4.8-5.6l-1.3-1.1l-7.1,8.3l-5,2.2
	l9.3-19.6l28.7-9l-2-6.4l-22.9,7.1l0.6-1.2l7.6-7.7l29.3-9.1l-2-6.4l-17.2,5.4L196,35.8l-4.7-4.7l-13.9,14l4.5-14.6l-6.3-2
	l-8.2,26.7l-9.1,9.2l6.5-21.2l-6.3-2l-8.4,27.3l-21.2,10.2l1.3-4l8.5-8.9l-1.2-1.2l-6.2,6.5l2-6.4l7.4-7.7l-1.2-1.2l-5,5.3l2.3-7.2
	l-1.6-0.5l-1.8,5.6l-0.6-4.4l-1.6,0.2l1.1,7.8l-2.3,7.3l-1-6.9l-1.6,0.2l1.5,10.3l-1.3,4l-7.7-21.8l13.9-26.6l-5.9-3.1l-11,20.9V34
	l13.6-26l-5.9-3.1l-7.7,14.8V0h-6.6v19.7l-7.7-14.8L96.5,8l13.6,26v13L99.2,26l-5.9,3.1l13.9,26.6l-7.9,22.4l-1.4-2.8L97.6,63L96,63
	l0.2,8.8l-3.1-6l-0.2-10.5l-1.7,0l0.2,7l-4.2-8.2l-1.5,0.8l3.6,7.1l-3.7-2.8l-1,1.3l6.4,4.8l3.4,6.7l-5.7-4.2l-1,1.3l8.4,6.3
	l1.4,2.7l-19.4-9.3l-8.6-27.9l-6.3,2l6.8,22l-1.1-0.5l-7.7-7.8l-8.7-28.4l-6.3,2l5,16.3L35.6,31.1l-4.7,4.7L46,51.1l-15.6-4.9
	l-2,6.4l27.6,8.6l8.1,8.2l0.4,0.8L43,63.5l-2,6.4l27.4,8.5L78,98.6l-2.5-0.9l-8.6-8.5l-1.2,1.2l6,6l-6.6-2.4L58.2,87l-1.2,1.2
	l4.3,4.3l-7.7-2.8l-0.6,1.6l8.2,3L55.8,95l0.2,1.7l8.6-1.1l6.8,2.5l-7.3,1l0.2,1.7l10.5-1.4l2.4,0.9l-22.6,8.1L27.6,93.9l-3.1,5.9
	l20.8,11H32.4L6.6,97.2l-3.1,5.9l14.7,7.8H0v6.7h18.2l-14.7,7.8l3.1,5.9l25.8-13.7h12.9l-20.8,11l3.1,5.9l26.9-14.3l23.4,8.4
	l-1.5,0.7l-13.3,0.3l0,1.7l9.2-0.2l-7.2,3.1l-9.6,0.2l0,1.7l5.4-0.1l-6.2,2.7l0.6,1.5l7.7-3.3l-3.6,4.8l1.3,1l5.3-7.1l6.1-2.6
	l-4.1,5.5l1.3,1l5.8-7.8l2.5-1.1l-9.8,20.8l-28.9,9l2,6.4l22.7-7.1l-9.1,9.2L26.4,177.6z M110.1,149.9l-5.3-14.9l-14.2,6.8
	l19.4-19.5V149.9z M116.8,122.3l19.4,19.5l-14.2-6.8l-5.3,14.9V122.3z M121.5,117.6h27.4l-14.8,5.3l6.7,14.2L121.5,117.6z
	 M121.5,110.9l19.4-19.5l-6.7,14.3l14.8,5.3H121.5z M116.8,106.1V78.5l5.3,14.9l14.2-6.8L116.8,106.1z M110.1,106.1L90.7,86.6
	l14.2,6.8l5.3-14.9V106.1z M105.4,110.9H78l14.8-5.3L86,91.3L105.4,110.9z M105.4,117.6L86,137.1l6.7-14.2L78,117.6H105.4z
	 M99.9,147.1l-22.9,11l0.8-2.7l23.2-11.1l8.4,23.8l-1.3,2.5L99.9,147.1z M127,147.1l-8.3,23.4l-1.3-2.5l8.4-23.8l22.1,10.6l0.8,2.7
	L127,147.1z M146.1,127.8L157,151l-2.6-0.8l-11.1-23.5l25.1-9l2.4,1.3L146.1,127.8z M146.1,100.6l24.7,8.9l-2.4,1.3l-25.1-9
	l10.1-21.5l2.6-0.8L146.1,100.6z M127,81.3l22.4-10.7l-0.8,2.7l-22.8,10.9l-8.5-24l1.3-2.5L127,81.3z M99.9,81.3l8.3-23.6l1.3,2.5
	l-8.5,24L79.7,73.9l-0.8-2.7L99.9,81.3z M80.8,100.6L70.6,79.1l2.6,0.8l10.3,21.9L59,110.6l-2.4-1.3L80.8,100.6z M80.8,127.8
	l-24.2-8.7l2.4-1.3l24.6,8.8l-10.9,23.1l-2.6,0.8L80.8,127.8z"/>
</svg>
