<?xml version="1.0" encoding="utf-8"?>
<!-- Generator: Adobe Illustrator 18.1.0, SVG Export Plug-In . SVG Version: 6.00 Build 0)  -->
<svg version="1.1" id="Layer_1" xmlns="http://www.w3.org/2000/svg" xmlns:xlink="http://www.w3.org/1999/xlink" x="0px" y="0px"
	 viewBox="0 0 226.9 226.9" enable-background="new 0 0 226.9 226.9" xml:space="preserve">
<g>
	<g>
		<g>
			<g>
				<g>
					<path fill="#FFFFFF" d="M113.6,113.6c-0.1-8.8,0.1-17.5,0.8-26.3c0.1-1.6-2.4-1.6-2.5,0c-0.7,8.8-0.9,17.5-0.8,26.3
						C111.1,115.3,113.6,115.3,113.6,113.6L113.6,113.6z"/>
				</g>
			</g>
			<g>
				<g>
					<path fill="#FFFFFF" d="M112.9,87.3c10.2-0.1,13.2-16.8,2.5-18.7c-9.8-1.7-13.3,15.1-4.3,18c1.5,0.5,2.2-1.9,0.7-2.4
						c-6.1-2-3.5-14.4,3.3-13c7.7,1.5,5,13.7-2.1,13.7C111.3,84.8,111.3,87.3,112.9,87.3L112.9,87.3z"/>
				</g>
			</g>
			<g>
				<g>
					<path fill="#FFFFFF" d="M100.3,40.9c0.8,7.2,2.7,14.5,5.6,21.1c1.3,3,4.2,8,8.3,7c3.8-0.9,6.4-7.9,7.6-11.1
						c2.3-6,3.1-12.5,3.5-18.9c0.1-1.6-2.4-1.6-2.5,0c-0.6,8.5-1.9,17.5-6.9,24.8c-4.5,6.6-7.9-2.9-9.2-6.6
						c-1.8-5.3-3.4-10.7-4-16.3C102.6,39.3,100.1,39.3,100.3,40.9L100.3,40.9z"/>
				</g>
			</g>
			<g>
				<g>
					<path fill="#FFFFFF" d="M100.5,40c7.1-2.9,14.7-2.9,21.7,0.4c1.4,0.7,2.7-1.5,1.3-2.2c-7.6-3.5-15.9-3.8-23.6-0.6
						C98.4,38.2,99,40.6,100.5,40L100.5,40z"/>
				</g>
			</g>
			<g>
				<g>
					<path fill="#FFFFFF" d="M113.4,34.7c-0.3-6.1-0.1-12.2,0.5-18.3c0.2-1.6-2.3-1.6-2.5,0c-0.6,6.1-0.8,12.2-0.5,18.3
						C111,36.3,113.5,36.3,113.4,34.7L113.4,34.7z"/>
				</g>
			</g>
			<g>
				<g>
					<path fill="#FFFFFF" d="M103.9,1.5c2,5.1,4.4,9.9,7.2,14.5c0.4,0.6,1.4,0.9,2,0.3c3.7-4.6,7.3-9.2,9.5-14.7
						c0.6-1.5-1.8-2.1-2.4-0.7c-2,5.1-5.4,9.4-8.9,13.6c0.7,0.1,1.3,0.2,2,0.3c-2.8-4.4-5.1-9-7-13.9C105.7-0.6,103.3,0,103.9,1.5
						L103.9,1.5z"/>
				</g>
			</g>
			<g>
				<g>
					<path fill="#FFFFFF" d="M87.4,21.1c4,6.2,7.9,12.5,11.6,19c0.8,1.4,3,0.1,2.2-1.3c-3.7-6.4-7.6-12.8-11.6-19
						C88.7,18.5,86.5,19.7,87.4,21.1L87.4,21.1z"/>
				</g>
			</g>
			<g>
				<g>
					<path fill="#FFFFFF" d="M124.9,39.6c1.6-2.7,3.3-5.3,5.1-7.8c1.7-2.4,3.8-6.6,6.4-7.9c1.4-0.7,0.2-2.9-1.3-2.2
						c-2.5,1.2-4.3,4.7-5.9,6.9c-2.3,3.2-4.5,6.4-6.5,9.7C121.9,39.7,124.1,40.9,124.9,39.6L124.9,39.6z"/>
				</g>
			</g>
			<g>
				<g>
					<path fill="#FFFFFF" d="M96.7,12.5c3.2,3.7,6.3,7.4,9.5,11.1c1.5,1.7,3.7,5.9,6.4,5.7c2.7-0.2,6-4.3,7.7-6
						c3.1-3.1,5.9-6.4,8.4-10c0.9-1.3-1.2-2.6-2.2-1.3c-2.1,2.9-4.3,5.7-6.8,8.3c-1.7,1.7-5.4,6.6-8.3,5.7c-1.7-0.5-4.7-5.5-5.9-7
						c-2.4-2.8-4.8-5.6-7.1-8.4C97.4,9.5,95.6,11.3,96.7,12.5L96.7,12.5z"/>
				</g>
			</g>
			<g>
				<g>
					<path fill="#FFFFFF" d="M86.5,16.5c-1.9-1.1-4.2,0-4.5,2.2c-0.4,2.6,1.9,4.3,4.2,4.7c2.4,0.4,5.1-0.2,6.4-2.3
						c1.2-2,0.6-4.5-1.1-5.9c-3.7-3.1-10.5,0.2-9,5.3c1.4,4.9,10.5,1.4,8.4-2.9c-1.3-2.8-4.8-0.8-5.6,1.3c-0.4,1-0.3,2.2,0.6,3
						c1.2,1,2.1,0.3,3.3-0.2c-0.3,0-0.6,0.1-1,0.1c0.1,0,0.2,0,0.3,0c1.6,0.2,2.3-2.2,0.7-2.4c-0.8-0.1-1.1,0.1-1.8,0.4
						c-0.3,0.2-0.2,0.2,0.2,0c0.1-0.2,0.3-0.4,0.4-0.5c0.9-0.3-0.5,0.7-0.5,0.7c-1.1,0.6-3,0.8-2.6-1c0.2-1.1,1.1-2,2.1-2.3
						c2.2-0.7,5.2,1.9,3,3.9c-0.8,0.8-2.1,0.9-3.2,0.7c-0.5-0.1-1.1-0.2-1.5-0.5c-0.2-0.2-0.4-0.4-0.6-0.5c-0.5-0.7-0.3-1.1,0.6-1.2
						C86.6,19.5,87.9,17.4,86.5,16.5L86.5,16.5z"/>
				</g>
			</g>
			<g>
				<g>
					<path fill="#FFFFFF" d="M134,19.1c0.1,2.4,0.4,4.3,3.1,4.8c2,0.4,4.3,0.1,5.9-1.2c3.4-2.7,1.4-8.3-2.8-8.6
						c-3.9-0.2-8.5,5.1-4.4,8.1c4.1,3,8.2-4.2,4-5.7c-2-0.8-4,1.3-3.1,3.2c1.1,2.4,4.3,1.2,4.4-1.1c0-1-1.1-1.5-1.9-1.1
						c-1.1,0.6-1.6,1.8-1.1,2.9c0.6,1.5,3,0.8,2.4-0.7c0,0,0-0.1,0-0.1c-0.6-0.4-1.3-0.7-1.9-1.1c0,0.8,0.9,1.1-0.2,1.7
						c-0.4,0.3-0.9,0.1-1.3-0.2c-0.8-0.8-0.2-1.9,0.5-2.6c1.3-1.2,3.4-1.3,4.3,0.3c1,1.7-0.4,3.2-2.1,3.5c-0.7,0.1-1.6,0.2-2.3,0
						c-1.3-0.3-1-1.2-1.1-2.4C136.5,17.5,134,17.5,134,19.1L134,19.1z"/>
				</g>
			</g>
			<g>
				<g>
					<path fill="#FFFFFF" d="M112.7,48.5c1.4-0.6,0.7-2.6-0.7-2.7c-1.8,0-1.9,2-1.2,3.2c1.5,2.6,5.4,1.6,5.7-1.3
						c0.3-2.9-3.3-4.6-5.5-2.9c-2.3,1.8-1.6,5.3,1.1,6.2c2.6,0.9,4.9-1.6,4.5-4.1c-0.4-2.7-3.5-3.7-5.7-2.3c-2.4,1.5-2,4.9,0.2,6.4
						c2.5,1.7,5.8-0.3,6.2-3.1c0.2-1.6-0.6-3.2-2.2-3.6c-1.6-0.4-3.5,0.2-4.5,1.5c-1,1.2-1.1,3.2,0,4.4c1.1,1.2,2.9,1.1,4.1,0.2
						c1.3-1-0.5-2.8-1.8-1.8c-0.4,0.3-0.7-0.4-0.6-0.7c0.1-0.7,0.7-1,1.3-1.1c0.6-0.1,1.2-0.1,1.2,0.7c0,0.5-0.3,1.1-0.8,1.4
						c-0.9,0.6-2.1,0-2.3-1.1c-0.1-0.9,0.8-1.5,1.6-1.3c0.8,0.2,1,1.1,0.6,1.8c-0.5,0.8-1.7,0.4-1.9-0.5c-0.1-0.9,1.1-1.7,1.7-0.9
						c0.9,1-1.1,1.6-0.9,0.6c-0.3,0.3-0.6,0.6-0.9,0.9c0,0,0.1,0,0.1,0c-0.4-0.2-0.7-0.4-1.1-0.6c0,0,0.1,0.1,0.1,0.1
						c0-0.3-0.1-0.6-0.1-1c0,0,0,0.1,0,0.1c0.2-0.2,0.4-0.5,0.6-0.7c0,0-0.1,0-0.1,0.1C110,47,111.2,49.1,112.7,48.5L112.7,48.5z"/>
				</g>
			</g>
			<g>
				<g>
					<path fill="#FFFFFF" d="M111.2,52.3c-0.4,4.6-0.2,9.2,0.6,13.8c0.3,1.6,2.7,0.9,2.4-0.7c-0.7-4.4-0.8-8.7-0.5-13.1
						C113.8,50.7,111.3,50.7,111.2,52.3L111.2,52.3z"/>
				</g>
			</g>
			<g>
				<g>
					<path fill="#FFFFFF" d="M81.4,40.1c6.2,1.4,12.7,1.8,19,2.8c1.6,0.2,2.3-2.2,0.7-2.4c-6.3-0.9-12.8-1.3-19-2.8
						C80.5,37.4,79.8,39.8,81.4,40.1L81.4,40.1z"/>
				</g>
			</g>
			<g>
				<g>
					<path fill="#FFFFFF" d="M124.5,42.2c5.8,0.5,12.6,0.6,18.1-1.6c1.5-0.6,0.8-3-0.7-2.4c-5.3,2.1-11.9,2-17.5,1.5
						C122.9,39.6,122.9,42.1,124.5,42.2L124.5,42.2z"/>
				</g>
			</g>
		</g>
		<g>
			<g>
				<g>
					<path fill="#FFFFFF" d="M111.1,113.2c-0.1,8.8,0.1,17.5,0.8,26.3c0.1,1.6,2.6,1.6,2.5,0c-0.7-8.8-0.9-17.5-0.8-26.3
						C113.6,111.6,111.1,111.6,111.1,113.2L111.1,113.2z"/>
				</g>
			</g>
			<g>
				<g>
					<path fill="#FFFFFF" d="M112.9,142c7.1,0.1,9.9,12.2,2.1,13.7c-6.8,1.3-9.3-11.1-3.3-13c1.5-0.5,0.9-2.9-0.7-2.4
						c-9,2.9-5.5,19.7,4.3,18c10.7-1.9,7.7-18.6-2.5-18.7C111.3,139.5,111.3,142,112.9,142L112.9,142z"/>
				</g>
			</g>
			<g>
				<g>
					<path fill="#FFFFFF" d="M102.8,186c0.6-5.6,2.2-11,4-16.3c1.3-3.8,4.7-13.2,9.2-6.6c5,7.2,6.3,16.2,6.9,24.8
						c0.1,1.6,2.6,1.6,2.5,0c-0.4-6.4-1.2-12.8-3.5-18.9c-1.3-3.3-3.8-10.1-7.6-11.1c-4-1-7,4.1-8.3,7c-2.8,6.7-4.8,14-5.6,21.1
						C100.1,187.6,102.6,187.6,102.8,186L102.8,186z"/>
				</g>
			</g>
			<g>
				<g>
					<path fill="#FFFFFF" d="M99.9,189.3c7.8,3.2,16,2.9,23.6-0.6c1.5-0.7,0.2-2.8-1.3-2.2c-7,3.3-14.6,3.3-21.7,0.4
						C99,186.3,98.4,188.7,99.9,189.3L99.9,189.3z"/>
				</g>
			</g>
			<g>
				<g>
					<path fill="#FFFFFF" d="M110.9,192.2c-0.3,6.1-0.1,12.2,0.5,18.3c0.2,1.6,2.7,1.6,2.5,0c-0.6-6.1-0.8-12.2-0.5-18.3
						C113.5,190.6,111,190.6,110.9,192.2L110.9,192.2z"/>
				</g>
			</g>
			<g>
				<g>
					<path fill="#FFFFFF" d="M106.3,226c1.9-4.9,4.2-9.5,7-13.9c-0.7,0.1-1.3,0.2-2,0.3c3.4,4.2,6.8,8.5,8.9,13.6
						c0.6,1.5,3,0.8,2.4-0.7c-2.2-5.5-5.8-10.2-9.5-14.7c-0.5-0.7-1.6-0.4-2,0.3c-2.9,4.6-5.3,9.4-7.2,14.5
						C103.3,226.8,105.7,227.5,106.3,226L106.3,226z"/>
				</g>
			</g>
			<g>
				<g>
					<path fill="#FFFFFF" d="M89.6,207.1c4-6.2,7.9-12.5,11.6-19c0.8-1.4-1.4-2.7-2.2-1.3c-3.7,6.4-7.6,12.8-11.6,19
						C86.5,207.1,88.7,208.4,89.6,207.1L89.6,207.1z"/>
				</g>
			</g>
			<g>
				<g>
					<path fill="#FFFFFF" d="M122.8,188.6c2,3.3,4.2,6.6,6.5,9.7c1.6,2.2,3.4,5.7,5.9,6.9c1.4,0.7,2.7-1.4,1.3-2.2
						c-2.6-1.3-4.7-5.5-6.4-7.9c-1.8-2.6-3.5-5.2-5.1-7.8C124.1,185.9,121.9,187.2,122.8,188.6L122.8,188.6z"/>
				</g>
			</g>
			<g>
				<g>
					<path fill="#FFFFFF" d="M98.4,216.1c2.2-2.6,4.4-5.1,6.5-7.7c1-1.2,2-2.3,3-3.5c0.6-0.7,2.8-3.9,3.6-4.2
						c4.5-1.5,13.1,11.2,15.1,14c0.9,1.3,3.1,0.1,2.2-1.3c-2.4-3.3-4.9-6.5-7.8-9.4c-1.9-1.9-5.4-6.4-8.3-6.6
						c-2.6-0.2-4.5,3.4-5.9,5c-3.4,3.9-6.7,7.9-10.1,11.8C95.6,215.6,97.4,217.4,98.4,216.1L98.4,216.1z"/>
				</g>
			</g>
			<g>
				<g>
					<path fill="#FFFFFF" d="M85.2,208.2c-0.8-0.1-1-0.4-0.7-0.9c0.1-0.4,0.3-0.7,0.7-0.9c0.4-0.3,0.9-0.4,1.3-0.5
						c1.1-0.2,2.5-0.2,3.4,0.7c2.2,2-0.9,4.5-3,3.9c-0.9-0.3-1.8-1.1-2.1-2c-0.6-1.9,1.3-2.1,2.6-1.3c0.1,0.1,1.3,0.8,0.7,0.7
						c-0.4-0.1-0.5-0.7-1-0.6c0.2,0,0.8,0.5,1,0.5c0.3,0.1,0.7,0,1,0c1.6-0.2,0.9-2.6-0.7-2.4c-0.1,0-0.2,0-0.3,0
						c0.3,0,0.6,0.1,1,0.1c-0.9-0.4-1.7-1.1-2.8-0.6c-1,0.4-1.5,1.5-1.4,2.5c0.2,2,2.9,4.5,4.9,3.2c4.2-2.7-3.2-8.6-6.6-5.5
						c-1.8,1.6-1.2,4.5,0.2,6.1c1.5,1.8,4,2.4,6.2,1.6c2.1-0.8,3.8-3,3.4-5.3c-0.5-2.4-2.7-3.9-5.1-4.1c-2.5-0.1-5.8,1-6.1,3.9
						c-0.3,2.5,2.3,4.5,4.5,3.1C87.9,209.5,86.6,207.3,85.2,208.2L85.2,208.2z"/>
				</g>
			</g>
			<g>
				<g>
					<path fill="#FFFFFF" d="M136.5,207.7c0-1-0.3-2,0.9-2.3c0.8-0.2,1.7-0.2,2.5,0c1.7,0.4,3,1.8,2.1,3.5c-0.9,1.7-3.1,1.6-4.3,0.3
						c-0.6-0.5-1.2-1.6-0.7-2.4c0.3-0.5,1-0.7,1.5-0.4c0.1,0.1,0.3,0.3,0.4,0.4c0.3,0.5,0.2,0.9-0.2,1.3c0.6-0.4,1.3-0.7,1.9-1.1
						c0,0,0-0.1,0-0.1c0.6-1.5-1.8-2.1-2.4-0.7c-0.5,1.2,0,2.3,1.1,2.9c0.8,0.4,1.9-0.1,1.9-1.1c-0.1-1.9-2.3-3.4-3.9-1.8
						c-1.4,1.4-0.7,3.7,1.2,4c4.5,0.8,3.6-7.7-1.3-6.5c-2,0.5-3.3,2.5-2.8,4.5c0.5,2,2.2,3.6,4.2,4.1c4.1,1,7.9-3.6,5.5-7.3
						c-1.3-1.9-3.8-2.6-6-2.4c-1.1,0.1-2.3,0.3-3.1,1.1c-1,1-0.9,2.5-0.9,3.8C134,209.3,136.5,209.3,136.5,207.7L136.5,207.7z"/>
				</g>
			</g>
			<g>
				<g>
					<path fill="#FFFFFF" d="M111.4,180.5c0,0,0.1,0,0.1,0.1c-0.2-0.2-0.4-0.5-0.6-0.7c0,0,0,0.1,0,0.1c0-0.3,0.1-0.6,0.1-1
						c0,0-0.1,0.1-0.1,0.1c0.4-0.2,0.7-0.4,1.1-0.6c0,0-0.1,0-0.1,0c0.3,0.3,0.6,0.6,0.9,0.9c-0.2-0.9,1.7-0.5,1,0.6
						c-0.6,0.9-1.9,0.1-1.8-0.9c0.1-0.9,1.4-1.2,1.9-0.5c0.4,0.7,0.2,1.6-0.6,1.8c-0.8,0.2-1.7-0.5-1.6-1.3c0.2-1.1,1.4-1.7,2.3-1.1
						c0.8,0.6,1.3,2.3-0.2,2.1c-0.6-0.1-1.3-0.4-1.4-1c-0.1-0.2,0.1-1.2,0.6-0.8c1.2,1,3-0.8,1.8-1.8c-2.5-2-5.7,0.6-4.7,3.6
						c0.9,2.6,5.4,3.8,6.9,1c1.3-2.6-1.1-5.9-3.9-5.8c-2.7,0.1-4.7,3.3-3.4,5.7c1.2,2.2,4.6,2.7,6.3,0.7c1.5-1.9,0.6-5.2-1.8-5.8
						c-2.7-0.7-5.3,2-4.3,4.7c1,2.7,4.8,3.2,6.3,0.7c1.7-2.9-2-6.4-4.6-4.1c-1,0.9-1.8,3.2-0.1,3.8c1.7,0.7,3.1-1.8,1.4-2.5
						C111.2,177.8,110,179.9,111.4,180.5L111.4,180.5z"/>
				</g>
			</g>
			<g>
				<g>
					<path fill="#FFFFFF" d="M113.7,174.6c-0.4-4.4-0.2-8.7,0.5-13.1c0.3-1.6-2.2-2.3-2.4-0.7c-0.7,4.6-0.9,9.1-0.6,13.8
						C111.3,176.2,113.8,176.2,113.7,174.6L113.7,174.6z"/>
				</g>
			</g>
			<g>
				<g>
					<path fill="#FFFFFF" d="M82.1,190.2c6.3-1.5,12.6-2.8,19-3.8c1.6-0.2,0.9-2.7-0.7-2.4c-6.4,1-12.7,2.3-19,3.8
						C79.8,188.2,80.5,190.6,82.1,190.2L82.1,190.2z"/>
				</g>
			</g>
			<g>
				<g>
					<path fill="#FFFFFF" d="M124.5,187.1c6.3,0.6,12.7,2.3,18.7,4.5c1.5,0.5,2.2-1.9,0.7-2.4c-6.2-2.2-12.8-3.9-19.4-4.5
						C122.9,184.5,122.9,187,124.5,187.1L124.5,187.1z"/>
				</g>
			</g>
		</g>
	</g>
	<g>
		<g>
			<g>
				<g>
					<path fill="#FFFFFF" d="M113.7,113.4c-6.3-6.1-12.3-12.5-18.1-19.2c-1-1.2-2.8,0.6-1.8,1.8c5.7,6.7,11.7,13.1,18.1,19.2
						C113.1,116.3,114.8,114.5,113.7,113.4L113.7,113.4z"/>
				</g>
			</g>
			<g>
				<g>
					<path fill="#FFFFFF" d="M94.5,95.3c7.1-7.3-2.6-21.2-11.5-15c-8.2,5.7,1.3,20,9.7,15.7c1.4-0.7,0.2-2.9-1.3-2.2
						c-5.7,2.9-12.5-7.8-6.9-11.6c6.6-4.4,13.2,6.1,8.2,11.2C91.6,94.7,93.4,96.5,94.5,95.3L94.5,95.3z"/>
				</g>
			</g>
			<g>
				<g>
					<path fill="#FFFFFF" d="M52.8,71.4c5.2,4.2,11.2,7.5,17.3,10.3c3.2,1.5,9.8,4,12.4-0.2c1.9-3-0.9-9.5-2-12.3
						c-2.6-6.3-6.8-11.7-11.2-16.8c-1.1-1.2-2.8,0.6-1.8,1.8c5,5.7,13.4,15.4,12.8,23.7c-0.3,4.1-3.4,3.7-6.9,2.5
						c-2.2-0.8-4.4-2-6.6-3.1c-4.3-2.2-8.4-4.6-12.2-7.6C53.3,68.6,51.6,70.4,52.8,71.4L52.8,71.4z"/>
				</g>
			</g>
			<g>
				<g>
					<path fill="#FFFFFF" d="M52.5,70.3c2.8-7,8.4-12.3,15.5-14.8c1.5-0.5,0.9-2.9-0.7-2.4c-8,2.8-14.1,8.7-17.2,16.5
						C49.4,71.1,51.9,71.7,52.5,70.3L52.5,70.3z"/>
				</g>
			</g>
			<g>
				<g>
					<path fill="#FFFFFF" d="M57.7,57.7c-4.5-4.1-8.7-8.6-12.6-13.3c-1-1.2-2.8,0.5-1.8,1.8c3.9,4.7,8.1,9.2,12.6,13.3
						C57.1,60.6,58.9,58.8,57.7,57.7L57.7,57.7z"/>
				</g>
			</g>
			<g>
				<g>
					<path fill="#FFFFFF" d="M27.5,41c5,2.2,10.1,3.9,15.4,5.1c0.7,0.2,1.7-0.4,1.6-1.2c-0.6-5.9-1.4-11.7-3.7-17.2
						c-0.6-1.5-2.8-0.2-2.2,1.3c2.2,5.1,2.8,10.5,3.4,15.9c0.5-0.4,1.1-0.8,1.6-1.2c-5.1-1.2-10-2.8-14.8-4.9
						C27.3,38.2,26,40.3,27.5,41L27.5,41z"/>
				</g>
			</g>
			<g>
				<g>
					<path fill="#FFFFFF" d="M29.7,66.5c7.3,1.5,14.5,3.3,21.6,5.2c1.6,0.4,2.2-2,0.7-2.4c-7.2-1.9-14.4-3.6-21.6-5.2
						C28.8,63.7,28.1,66.1,29.7,66.5L29.7,66.5z"/>
				</g>
			</g>
			<g>
				<g>
					<path fill="#FFFFFF" d="M69.3,53c-0.7-3-1.4-6.1-1.9-9.2c-0.5-2.7-2-7.4-1.1-10.1c0.5-1.5-1.9-2.2-2.4-0.7
						c-0.9,2.5,0.2,6,0.6,8.5c0.6,4,1.4,8,2.4,12C67.3,55.2,69.7,54.5,69.3,53L69.3,53z"/>
				</g>
			</g>
			<g>
				<g>
					<path fill="#FFFFFF" d="M30.2,53.9c4.7,0.4,9.5,0.7,14.2,1.1c2.3,0.2,6.9,1.6,8.8-0.4c1.8-1.8,1.3-6.7,1.3-9
						c0.1-4.7-0.3-9.3-1.1-13.9c-0.3-1.6-2.7-0.9-2.4,0.7c0.6,3.8,3.4,19.3-1.6,20.5c-2.5,0.6-6.6-0.5-9.2-0.7
						c-3.3-0.3-6.7-0.5-10-0.8C28.6,51.2,28.6,53.7,30.2,53.9L30.2,53.9z"/>
				</g>
			</g>
			<g>
				<g>
					<path fill="#FFFFFF" d="M25.8,63.9c-2.2,0.5-3,3.2-1.5,4.9c1.6,1.9,4.3,1.5,6.2,0.2c1.9-1.3,3.3-3.4,3-5.7
						c-0.4-2.5-2.6-4.1-5.1-3.8c-2.4,0.2-4.5,2.1-5,4.5c-0.4,2.2,0.5,5,2.8,5.8c4.6,1.8,7.8-7.3,3.1-8.3c-2.8-0.6-3.5,3.1-2.6,5
						c0.5,1.1,1.5,1.8,2.7,1.6c0.5-0.1,1-0.3,1.3-0.8c0.1-0.2,0.6-1.3,0.4-1.2c1.4-0.9,0.1-3-1.3-2.2c-0.6,0.4-0.8,0.8-1,1.5
						c-0.1,0.5-0.1,0.4,0.1-0.1c0-0.2-0.1-0.4-0.1-0.6c-0.1-0.5,0-0.6,0.3-0.2c0,0.2,0,0.4-0.1,0.6c0,0.9-0.9,2.7-2,2.3
						c-1.3-0.5-1.4-2.6-1-3.6c1-2.4,5.5-2.7,5,0.6c-0.2,1.1-1,2-1.9,2.6c-0.5,0.3-1,0.6-1.6,0.6c-0.4,0-2.4-0.9-0.9-1.3
						C28,65.9,27.4,63.5,25.8,63.9L25.8,63.9z"/>
				</g>
			</g>
			<g>
				<g>
					<path fill="#FFFFFF" d="M61.3,32.1c1.8,1.7,3.5,2.8,5.8,1.1c1.8-1.3,3.3-3.5,3.2-5.8c-0.3-4.3-6-5.7-8.7-2.5
						c-2.4,2.9-1.1,9.4,3.6,8.2c4.8-1.3,1.9-9-1.9-6.7c-1.9,1.2-1.4,4.1,0.9,4.4c2.3,0.3,3.3-2.5,1.8-4c-0.7-0.7-1.8-0.4-2.1,0.6
						c-0.4,1.4,0.3,2.5,1.6,3c1.5,0.6,2.1-1.8,0.7-2.4c0.1,0,0.1,0.1,0.2,0.1c-0.7,0.2-1.4,0.4-2.1,0.6c0.6,0.6,1.1,0.1,1.1,1.1
						c0,0.5-0.3,0.9-0.8,1c-1.1,0.3-1.6-0.9-1.7-1.7c-0.2-1.5,0.8-3.2,2.4-3.3c1.6-0.1,2.9,1.3,2.4,2.9c-0.2,0.9-0.9,1.7-1.5,2.3
						c-0.3,0.2-0.8,0.8-1.2,0.8c-0.6,0-1.4-0.9-1.8-1.3C61.9,29.3,60.1,31,61.3,32.1L61.3,32.1z"/>
				</g>
			</g>
			<g>
				<g>
					<path fill="#FFFFFF" d="M67,68c0.6-1.6-1.6-2.4-2.6-1.2c-1,1.2,0.3,2.6,1.5,2.9c2.8,0.8,4.8-2.3,3.3-4.7
						c-1.6-2.5-5.5-1.4-6.1,1.3c-0.6,2.9,2.4,5.1,5,3.9c2.6-1.2,2.5-4.8,0.2-6.3c-2.4-1.6-5.3,0.4-5.6,3.1c-0.2,2.7,2.6,4.5,5.1,3.8
						c2.6-0.7,3.5-4,2.1-6.2c-0.8-1.3-2.5-2.1-4-1.4c-1.5,0.7-2.5,2.6-2.4,4.2c0.1,1.6,1.4,3.1,3,3.2c1.7,0.1,2.9-1.1,3.1-2.7
						c0.2-1.6-2.3-1.6-2.5,0c-0.1,0.6-0.9,0-1-0.1c-0.4-0.6-0.1-1.4,0.4-1.9c0.9-1.1,1.7,0.5,1.5,1.4c-0.4,2.4-4.2,0.6-2.3-1.1
						c0.7-0.6,1.7-0.1,1.8,0.8c0.1,1.1-1.4,1.5-1.9,0.6c-0.4-0.7,0.3-2.1,1.2-1.5c0.8,0.6-0.1,1.7-0.6,1c0,0.4,0,0.8,0,1.3
						c0,0,0.1-0.1,0.1-0.1c-0.4,0.1-0.8,0.2-1.2,0.3c0,0,0.1,0,0.1,0c-0.2-0.2-0.5-0.4-0.7-0.6c0,0,0.1,0.1,0.1,0.1
						c0-0.3-0.1-0.6-0.1-1c0,0,0,0.1,0,0.1C64,68.8,66.4,69.4,67,68L67,68z"/>
				</g>
			</g>
			<g>
				<g>
					<path fill="#FFFFFF" d="M68.6,71.7c3,3.5,6.4,6.6,10.1,9.3c1.3,0.9,2.6-1.2,1.3-2.2c-3.6-2.6-6.8-5.6-9.6-8.9
						C69.3,68.7,67.5,70.5,68.6,71.7L68.6,71.7z"/>
				</g>
			</g>
			<g>
				<g>
					<path fill="#FFFFFF" d="M36.3,82.7c5.9-3.5,12.4-6.1,18-10c1.3-0.9,0.1-3.1-1.3-2.2c-5.6,4-12.1,6.5-18,10
						C33.6,81.4,34.9,83.5,36.3,82.7L36.3,82.7z"/>
				</g>
			</g>
			<g>
				<g>
					<path fill="#FFFFFF" d="M70.9,55.2c4.4-5.1,9.7-9.5,12.1-16c0.6-1.5-1.9-2.2-2.4-0.7c-2.2,6-7.3,10.1-11.4,14.9
						C68.1,54.7,69.8,56.4,70.9,55.2L70.9,55.2z"/>
				</g>
			</g>
		</g>
		<g>
			<g>
				<g>
					<path fill="#FFFFFF" d="M111.6,114.8c6.1,6.3,12.5,12.3,19.2,18.1c1.2,1,3-0.7,1.8-1.8c-6.7-5.7-13.1-11.7-19.2-18.1
						C112.3,111.9,110.5,113.7,111.6,114.8L111.6,114.8z"/>
				</g>
			</g>
			<g>
				<g>
					<path fill="#FFFFFF" d="M133.2,134c5.1-5,15.6,1.6,11.2,8.2c-3.8,5.6-14.5-1.2-11.6-6.9c0.7-1.4-1.4-2.7-2.2-1.3
						c-4.3,8.4,10,17.8,15.7,9.7c6.3-8.9-7.7-18.6-15-11.5C130.3,133.4,132.1,135.1,133.2,134L133.2,134z"/>
				</g>
			</g>
			<g>
				<g>
					<path fill="#FFFFFF" d="M157.2,172.2c-2.9-3.5-5.1-7.4-7.2-11.4c-1.2-2.3-2.7-4.8-3.5-7.3c-1.2-3.5-1.6-6.7,2.5-6.9
						c8.2-0.5,18,7.9,23.7,12.8c1.2,1.1,3-0.7,1.8-1.8c-4.9-4.3-10.1-8.3-16-10.9c-3-1.3-9.8-4.4-13.1-2.4
						c-3.9,2.4-1.8,8.6-0.5,11.6c2.7,6.4,6.3,12.6,10.6,18C156.4,175.2,158.2,173.4,157.2,172.2L157.2,172.2z"/>
				</g>
			</g>
			<g>
				<g>
					<path fill="#FFFFFF" d="M157.2,176.7c7.8-3.2,13.7-9.3,16.5-17.2c0.5-1.5-1.9-2.2-2.4-0.7c-2.5,7.1-7.8,12.7-14.8,15.5
						C155,174.9,155.7,177.3,157.2,176.7L157.2,176.7z"/>
				</g>
			</g>
			<g>
				<g>
					<path fill="#FFFFFF" d="M167.3,170.8c4.1,4.5,8.6,8.7,13.3,12.6c1.2,1,3-0.7,1.8-1.8c-4.7-3.9-9.2-8.1-13.3-12.6
						C168,167.9,166.2,169.6,167.3,170.8L167.3,170.8z"/>
				</g>
			</g>
			<g>
				<g>
					<path fill="#FFFFFF" d="M188,198c-2.1-4.8-3.7-9.7-4.9-14.8c-0.4,0.5-0.8,1.1-1.2,1.6c5.4,0.6,10.8,1.2,15.9,3.4
						c1.5,0.6,2.7-1.5,1.3-2.2c-5.5-2.3-11.3-3.1-17.2-3.7c-0.8-0.1-1.4,0.9-1.2,1.6c1.2,5.3,2.9,10.4,5.1,15.4
						C186.4,200.7,188.6,199.5,188,198L188,198z"/>
				</g>
			</g>
			<g>
				<g>
					<path fill="#FFFFFF" d="M162.7,196.4c-1.5-7.3-3.3-14.5-5.2-21.6c-0.4-1.6-2.8-0.9-2.4,0.7c1.9,7.2,3.7,14.4,5.2,21.6
						C160.6,198.7,163.1,198,162.7,196.4L162.7,196.4z"/>
				</g>
			</g>
			<g>
				<g>
					<path fill="#FFFFFF" d="M173.1,159.9c4,0.9,8,1.7,12,2.4c2.6,0.4,6,1.5,8.5,0.6c1.5-0.5,0.9-2.9-0.7-2.4
						c-2.8,0.9-7.3-0.6-10.1-1.1c-3.1-0.5-6.1-1.2-9.2-1.9C172.2,157.1,171.6,159.5,173.1,159.9L173.1,159.9z"/>
				</g>
			</g>
			<g>
				<g>
					<path fill="#FFFFFF" d="M175.4,196.6c-0.3-3.3-0.5-6.7-0.8-10c-0.2-2.6-1.3-6.7-0.7-9.2c1.2-5.1,16.7-2.2,20.5-1.6
						c1.6,0.3,2.3-2.1,0.7-2.4c-4.3-0.7-8.6-1.2-13-1.1c-2.5,0-7.9-0.6-9.9,1.3c-1.9,1.8-0.6,5.9-0.5,8c0.4,5,0.8,10,1.2,15.1
						C173,198.2,175.5,198.2,175.4,196.6L175.4,196.6z"/>
				</g>
			</g>
			<g>
				<g>
					<path fill="#FFFFFF" d="M160.5,200.3c-0.3,1.3-1.2-0.2-1.3-0.6c-0.1-0.6,0.2-1.2,0.5-1.7c0.5-0.9,1.4-1.8,2.4-2.1
						c3.3-0.9,3.5,3.8,0.9,4.9c-1,0.4-2.7,0.3-3.3-0.7c-0.8-1.3,0.8-2,1.9-2.2c0.3-0.1,0.6-0.1,0.8-0.1c0.3,0.3,0.3,0.4,0,0.3
						c-0.3,0-0.6,0-0.9-0.1c-0.5,0.2-0.6,0.2-0.3,0.1c0.7-0.4,1.1-0.3,1.6-1c0.9-1.4-1.3-2.6-2.2-1.3c0.2-0.3-0.8,0.1-0.9,0.2
						c-0.4,0.2-0.7,0.6-0.8,1c-0.4,1-0.1,2.1,0.6,2.7c1.5,1.3,4.9,1.3,5.7-0.7c0.9-2.2-1.4-3.8-3.4-3.7c-2,0.1-4.6,1.5-5,3.7
						c-0.4,2.5,2,4.3,4.2,4.5c2.4,0.3,4.7-1,5.7-3.2c1-2.1,0.6-5-1.5-6.3c-2.1-1.3-4.7-0.6-6.4,1c-1.8,1.7-3.1,4.6-1.5,6.9
						c1.5,2.1,4.8,1.7,5.5-0.9C163.3,199.4,160.9,198.7,160.5,200.3L160.5,200.3z"/>
				</g>
			</g>
			<g>
				<g>
					<path fill="#FFFFFF" d="M196.4,163.7c-0.4-0.4-0.9-0.8-1.1-1.4c-0.2-0.7,0-1,0.5-1.5c0.6-0.7,1.4-1.4,2.2-1.7
						c1.7-0.6,3.2,0.6,3.1,2.4c-0.1,1.6-1.7,2.5-3.1,2.4c-0.9,0-2-0.4-2-1.5c0-0.5,0.3-0.9,0.8-1c1-0.3,0.9,0.6,1.3,1.1
						c0.2-0.7,0.4-1.4,0.6-2.1c0,0.1,0.1,0.1,0.1,0.2c-0.6-1.5-3-0.8-2.4,0.7c0.5,1.3,1.6,2,3,1.6c0.9-0.3,1.2-1.4,0.6-2.1
						c-1.2-1.2-3.6-0.9-4,1c-0.4,1.9,1.6,3.5,3.4,2.7c1.9-0.9,1.7-3.4,0.2-4.6c-1.5-1.3-4-1.2-5.2,0.5c-1.2,1.6-0.9,3.8,0.6,5.1
						c1.5,1.3,3.9,1.4,5.6,0.6c3.8-1.6,4.3-7.3,0.3-9.1c-2.4-1.1-5,0.2-6.7,2c-0.8,0.8-1.6,1.9-1.6,3.1c0,1.5,1.1,2.5,2,3.5
						C195.7,166.7,197.5,164.9,196.4,163.7L196.4,163.7z"/>
				</g>
			</g>
			<g>
				<g>
					<path fill="#FFFFFF" d="M159.5,162.2c0,0,0.1,0,0.1,0c-0.3,0-0.6-0.1-1-0.1c0,0,0.1,0.1,0.1,0.1c-0.2-0.2-0.4-0.5-0.6-0.7
						c0,0,0,0.1,0,0.1c0.1-0.4,0.2-0.8,0.3-1.2c0,0-0.1,0.1-0.1,0.1c0.4,0,0.8,0,1.3,0c-0.7-0.5,0.4-1.5,1-0.6
						c0.6,0.9-0.8,1.6-1.5,1.2c-0.8-0.5-0.5-1.9,0.5-1.9c0.9,0,1.6,1.1,0.9,1.8c-1.7,1.9-3.5-1.9-1.1-2.3c0.9-0.1,2.5,0.6,1.4,1.5
						c-0.5,0.4-1.3,0.7-1.9,0.4c-0.2-0.1-0.7-0.9-0.1-1c1.6-0.2,1.6-2.7,0-2.5c-3.2,0.4-3.6,4.6-0.7,5.8c2.7,1.2,6.9-1.6,5.3-4.6
						c-1.2-2.4-4.7-2.9-6.6-1c-1.8,1.8-1.2,5.2,1,6.3c2.4,1.2,5.6-0.7,5.5-3.4c-0.1-2.7-3.4-4.5-5.6-3c-2.4,1.6-1.9,5.4,0.8,6.3
						c2.7,0.9,5.6-1.7,4.5-4.5c-1.2-3-5.9-2.5-6,0.9c-0.1,1.3,0.9,3.3,2.5,2.8c1.8-0.6,1.1-3.5-0.7-2.8
						C157.3,160.4,158,162.8,159.5,162.2L159.5,162.2z"/>
				</g>
			</g>
			<g>
				<g>
					<path fill="#FFFFFF" d="M156.8,156.4c-3.4-2.8-6.4-6-8.9-9.6c-0.9-1.3-3.1,0-2.2,1.3c2.7,3.8,5.8,7.1,9.3,10.1
						C156.3,159.2,158.1,157.5,156.8,156.4L156.8,156.4z"/>
				</g>
			</g>
			<g>
				<g>
					<path fill="#FFFFFF" d="M144.6,191c3.6-5.9,7.6-11.7,11.7-17.3c0.9-1.3-1.2-2.5-2.2-1.3c-4.1,5.6-8,11.4-11.7,17.3
						C141.6,191.1,143.8,192.4,144.6,191L144.6,191z"/>
				</g>
			</g>
			<g>
				<g>
					<path fill="#FFFFFF" d="M173.3,157.7c4.5-3.8,9.5-7.1,14.8-9.7c1.4-0.7,0.2-2.9-1.3-2.2c-5.5,2.7-10.6,6.2-15.3,10.1
						C170.3,156.9,172.1,158.7,173.3,157.7L173.3,157.7z"/>
				</g>
			</g>
		</g>
	</g>
	<g>
		<g>
			<g>
				<g>
					<path fill="#FFFFFF" d="M113.7,113.2c-8.8,0.1-17.6-0.1-26.3-0.8c-1.6-0.1-1.6,2.4,0,2.5c8.8,0.7,17.5,0.9,26.3,0.8
						C115.3,115.7,115.3,113.2,113.7,113.2L113.7,113.2z"/>
				</g>
			</g>
			<g>
				<g>
					<path fill="#FFFFFF" d="M87.3,114c-0.1-10.2-16.8-13.2-18.7-2.5c-1.7,9.8,15.1,13.3,18,4.3c0.5-1.5-1.9-2.2-2.4-0.7
						c-2,6.1-14.4,3.5-13-3.3c1.5-7.7,13.7-5,13.7,2.1C84.9,115.6,87.4,115.6,87.3,114L87.3,114z"/>
				</g>
			</g>
			<g>
				<g>
					<path fill="#FFFFFF" d="M40.9,126.5c7.2-0.8,14.5-2.7,21.1-5.6c3-1.3,8-4.2,7-8.3c-0.9-3.8-7.9-6.4-11.1-7.6
						c-6-2.3-12.5-3.1-18.9-3.5c-1.6-0.1-1.6,2.4,0,2.5c8.5,0.6,17.5,1.9,24.8,6.9c6.6,4.5-2.9,7.9-6.6,9.2
						c-5.3,1.8-10.7,3.4-16.3,4C39.3,124.2,39.3,126.7,40.9,126.5L40.9,126.5z"/>
				</g>
			</g>
			<g>
				<g>
					<path fill="#FFFFFF" d="M40,126.3c-2.9-7.1-2.9-14.7,0.4-21.7c0.7-1.4-1.5-2.7-2.2-1.3c-3.5,7.6-3.8,15.8-0.6,23.6
						C38.2,128.4,40.6,127.8,40,126.3L40,126.3z"/>
				</g>
			</g>
			<g>
				<g>
					<path fill="#FFFFFF" d="M34.7,113.4c-6.1,0.3-12.2,0.1-18.3-0.5c-1.6-0.2-1.6,2.3,0,2.5c6.1,0.6,12.2,0.8,18.3,0.5
						C36.3,115.8,36.3,113.3,34.7,113.4L34.7,113.4z"/>
				</g>
			</g>
			<g>
				<g>
					<path fill="#FFFFFF" d="M1.5,122.9c5.1-2,9.9-4.4,14.5-7.2c0.6-0.4,0.9-1.4,0.3-2c-4.6-3.7-9.2-7.3-14.7-9.5
						c-1.5-0.6-2.1,1.8-0.7,2.4c5.1,2,9.4,5.4,13.6,8.9c0.1-0.7,0.2-1.3,0.3-2c-4.4,2.8-9,5.1-13.9,7C-0.6,121.1,0,123.5,1.5,122.9
						L1.5,122.9z"/>
				</g>
			</g>
			<g>
				<g>
					<path fill="#FFFFFF" d="M21.1,139.4c6.2-4,12.5-7.9,19-11.6c1.4-0.8,0.1-3-1.3-2.2c-6.4,3.7-12.8,7.6-19,11.6
						C18.5,138.1,19.7,140.3,21.1,139.4L21.1,139.4z"/>
				</g>
			</g>
			<g>
				<g>
					<path fill="#FFFFFF" d="M39.6,101.9c-2.7-1.6-5.3-3.3-7.8-5.1c-2.4-1.7-6.6-3.8-7.9-6.4c-0.7-1.4-2.9-0.2-2.2,1.3
						c1.2,2.5,4.7,4.3,6.9,5.9c3.2,2.3,6.4,4.5,9.7,6.5C39.7,104.9,40.9,102.7,39.6,101.9L39.6,101.9z"/>
				</g>
			</g>
			<g>
				<g>
					<path fill="#FFFFFF" d="M12.5,130.2c3.7-3.2,7.4-6.3,11.1-9.5c1.7-1.5,5.9-3.7,5.7-6.4c-0.2-2.7-4.3-6-6-7.7
						c-3.1-3.1-6.4-5.9-10-8.4c-1.3-0.9-2.6,1.2-1.3,2.2c2.9,2.1,5.7,4.3,8.3,6.8c1.7,1.7,6.6,5.4,5.7,8.3c-0.5,1.7-5.5,4.7-7,5.9
						c-2.8,2.4-5.6,4.8-8.4,7.1C9.5,129.4,11.3,131.2,12.5,130.2L12.5,130.2z"/>
				</g>
			</g>
			<g>
				<g>
					<path fill="#FFFFFF" d="M16.5,140.3c-1.1,1.9,0,4.2,2.2,4.5c2.6,0.4,4.3-1.9,4.7-4.2c0.4-2.4-0.2-5.1-2.3-6.4
						c-2-1.2-4.5-0.6-5.9,1.1c-3.1,3.7,0.2,10.5,5.3,9c4.9-1.4,1.4-10.5-2.9-8.4c-2.8,1.3-0.8,4.8,1.3,5.6c1,0.4,2.2,0.3,3-0.6
						c1-1.2,0.3-2.1-0.2-3.3c0,0.3,0.1,0.6,0.1,1c0-0.1,0-0.2,0-0.3c0.2-1.6-2.2-2.3-2.4-0.7c-0.1,0.8,0.1,1.1,0.4,1.8
						c0.2,0.3,0.2,0.2,0-0.2c-0.2-0.1-0.4-0.3-0.5-0.4c-0.3-0.9,0.7,0.5,0.7,0.5c0.6,1.1,0.8,3-1,2.6c-1.1-0.2-2-1.1-2.3-2.1
						c-0.7-2.2,1.9-5.2,3.9-3c0.8,0.8,0.9,2.1,0.7,3.2c-0.1,0.5-0.2,1.1-0.5,1.5c-0.2,0.2-0.4,0.4-0.5,0.6c-0.7,0.5-1.1,0.3-1.2-0.6
						C19.5,140.2,17.4,138.9,16.5,140.3L16.5,140.3z"/>
				</g>
			</g>
			<g>
				<g>
					<path fill="#FFFFFF" d="M19.2,92.8c2.4-0.1,4.3-0.4,4.8-3.1c0.4-2,0.1-4.3-1.2-5.9c-2.7-3.4-8.3-1.4-8.6,2.8
						c-0.2,3.9,5.1,8.5,8.1,4.4c3-4.1-4.2-8.2-5.8-4c-0.8,2,1.3,4,3.2,3.1c2.4-1.1,1.2-4.3-1.1-4.4c-1,0-1.5,1.1-1.1,1.9
						c0.6,1.1,1.8,1.6,2.9,1.1c1.5-0.6,0.8-3-0.7-2.4c0,0-0.1,0-0.1,0c-0.4,0.6-0.7,1.3-1.1,1.9c0.8,0,1.1-0.9,1.7,0.2
						c0.3,0.4,0.1,0.9-0.2,1.3c-0.8,0.8-1.9,0.2-2.6-0.5c-1.2-1.3-1.3-3.4,0.3-4.3c1.7-1,3.2,0.4,3.5,2.1c0.1,0.7,0.2,1.6,0,2.3
						c-0.3,1.3-1.2,1-2.4,1C17.5,90.4,17.5,92.9,19.2,92.8L19.2,92.8z"/>
				</g>
			</g>
			<g>
				<g>
					<path fill="#FFFFFF" d="M48.5,114.1c-0.6-1.4-2.6-0.7-2.7,0.7c0,1.8,2,1.9,3.2,1.2c2.6-1.5,1.6-5.4-1.3-5.7
						c-2.9-0.3-4.6,3.3-2.9,5.5c1.8,2.3,5.3,1.6,6.2-1.1c0.9-2.6-1.6-4.9-4.1-4.5c-2.7,0.4-3.7,3.5-2.3,5.7c1.5,2.4,4.9,2,6.4-0.2
						c1.7-2.5-0.3-5.8-3.1-6.2c-1.6-0.2-3.2,0.6-3.6,2.2c-0.4,1.6,0.2,3.5,1.5,4.5c1.2,1,3.2,1.1,4.4,0c1.2-1.1,1.1-2.9,0.2-4.1
						c-1-1.3-2.8,0.5-1.8,1.8c0.3,0.4-0.4,0.7-0.7,0.6c-0.7-0.1-1-0.7-1.1-1.3c-0.1-0.6-0.1-1.2,0.7-1.2c0.5,0,1.1,0.3,1.4,0.8
						c0.6,0.9,0,2.1-1.1,2.3c-0.9,0.1-1.5-0.8-1.3-1.6c0.2-0.8,1.1-1,1.8-0.6c0.8,0.5,0.4,1.7-0.5,1.9c-0.9,0.1-1.7-1.1-0.9-1.7
						c1-0.9,1.6,1.1,0.6,0.9c0.3,0.3,0.6,0.6,0.9,0.9c0,0,0-0.1,0-0.1c-0.2,0.4-0.4,0.7-0.6,1.1c0,0,0.1-0.1,0.1-0.1
						c-0.3,0-0.6,0.1-1,0.1c0,0,0.1,0,0.1,0c-0.2-0.2-0.5-0.4-0.7-0.6c0,0,0,0.1,0.1,0.1C47,116.8,49.1,115.6,48.5,114.1L48.5,114.1
						z"/>
				</g>
			</g>
			<g>
				<g>
					<path fill="#FFFFFF" d="M52.3,115.6c4.6,0.4,9.2,0.2,13.8-0.6c1.6-0.3,0.9-2.7-0.7-2.4c-4.4,0.7-8.7,0.8-13.1,0.5
						C50.7,113,50.7,115.5,52.3,115.6L52.3,115.6z"/>
				</g>
			</g>
			<g>
				<g>
					<path fill="#FFFFFF" d="M39.5,146.1c1.5-6.5,2.4-13.1,3.4-19.7c0.2-1.6-2.2-2.3-2.4-0.7c-1,6.6-1.8,13.2-3.4,19.7
						C36.7,147,39.2,147.7,39.5,146.1L39.5,146.1z"/>
				</g>
			</g>
			<g>
				<g>
					<path fill="#FFFFFF" d="M42.3,102.3c-0.8-7.1-2.9-14.3-5.4-21c-0.5-1.5-3-0.9-2.4,0.7c2.4,6.5,4.6,13.5,5.3,20.4
						C39.9,103.9,42.4,103.9,42.3,102.3L42.3,102.3z"/>
				</g>
			</g>
		</g>
		<g>
			<g>
				<g>
					<path fill="#FFFFFF" d="M113.2,115.7c8.8,0.1,17.6-0.1,26.3-0.8c1.6-0.1,1.6-2.6,0-2.5c-8.8,0.7-17.5,0.9-26.3,0.8
						C111.6,113.2,111.6,115.7,113.2,115.7L113.2,115.7z"/>
				</g>
			</g>
			<g>
				<g>
					<path fill="#FFFFFF" d="M142.1,114c0.1-7.1,12.2-9.9,13.7-2.1c1.3,6.8-11.1,9.3-13,3.3c-0.5-1.5-2.9-0.9-2.4,0.7
						c2.9,9,19.7,5.5,18-4.3c-1.9-10.7-18.6-7.7-18.7,2.5C139.5,115.6,142,115.6,142.1,114L142.1,114z"/>
				</g>
			</g>
			<g>
				<g>
					<path fill="#FFFFFF" d="M186,124c-5.6-0.6-11-2.2-16.3-4c-3.8-1.3-13.2-4.7-6.6-9.2c7.2-5,16.2-6.3,24.8-6.9
						c1.6-0.1,1.6-2.6,0-2.5c-6.4,0.4-12.8,1.2-18.9,3.5c-3.3,1.3-10.1,3.8-11.1,7.6c-1,4,4.1,7,7,8.3c6.7,2.8,14,4.8,21.1,5.6
						C187.6,126.7,187.6,124.2,186,124L186,124z"/>
				</g>
			</g>
			<g>
				<g>
					<path fill="#FFFFFF" d="M189.3,126.9c3.2-7.8,2.9-16-0.6-23.6c-0.7-1.5-2.8-0.2-2.2,1.3c3.3,7,3.3,14.6,0.4,21.7
						C186.3,127.8,188.7,128.4,189.3,126.9L189.3,126.9z"/>
				</g>
			</g>
			<g>
				<g>
					<path fill="#FFFFFF" d="M192.2,115.9c6.1,0.3,12.2,0.1,18.3-0.5c1.6-0.2,1.6-2.7,0-2.5c-6.1,0.6-12.2,0.8-18.3,0.5
						C190.6,113.3,190.6,115.8,192.2,115.9L192.2,115.9z"/>
				</g>
			</g>
			<g>
				<g>
					<path fill="#FFFFFF" d="M226,120.5c-4.9-1.9-9.5-4.2-13.9-7c0.1,0.7,0.2,1.3,0.3,2c4.2-3.4,8.5-6.8,13.6-8.9
						c1.5-0.6,0.8-3-0.7-2.4c-5.5,2.2-10.2,5.8-14.7,9.5c-0.7,0.5-0.4,1.6,0.3,2c4.6,2.9,9.4,5.3,14.5,7.2
						C226.9,123.5,227.5,121.1,226,120.5L226,120.5z"/>
				</g>
			</g>
			<g>
				<g>
					<path fill="#FFFFFF" d="M207.1,137.3c-6.2-4-12.5-7.9-19-11.6c-1.4-0.8-2.7,1.4-1.3,2.2c6.4,3.7,12.8,7.6,19,11.6
						C207.2,140.3,208.4,138.1,207.1,137.3L207.1,137.3z"/>
				</g>
			</g>
			<g>
				<g>
					<path fill="#FFFFFF" d="M188.6,104c3.3-2,6.6-4.2,9.7-6.5c2.2-1.6,5.7-3.4,6.9-5.9c0.7-1.4-1.4-2.7-2.2-1.3
						c-1.3,2.6-5.5,4.7-7.9,6.4c-2.6,1.8-5.2,3.5-7.8,5.1C186,102.7,187.2,104.9,188.6,104L188.6,104z"/>
				</g>
			</g>
			<g>
				<g>
					<path fill="#FFFFFF" d="M216.2,128.4c-2.6-2.2-5.1-4.4-7.7-6.5c-1.2-1-2.3-2-3.5-3c-0.7-0.6-3.9-2.8-4.2-3.6
						c-1.5-4.5,11.2-13.1,14-15.1c1.3-0.9,0.1-3.1-1.3-2.2c-3.3,2.4-6.5,4.9-9.4,7.8c-1.9,1.9-6.4,5.4-6.6,8.3
						c-0.2,2.6,3.4,4.5,5,5.9c3.9,3.4,7.9,6.7,11.8,10.1C215.6,131.2,217.4,129.4,216.2,128.4L216.2,128.4z"/>
				</g>
			</g>
			<g>
				<g>
					<path fill="#FFFFFF" d="M208.2,141.6c-0.1,0.8-0.4,1-0.9,0.7c-0.4-0.1-0.7-0.3-0.9-0.7c-0.3-0.4-0.4-0.9-0.5-1.3
						c-0.2-1.1-0.2-2.5,0.7-3.4c2-2.2,4.5,0.9,3.9,3c-0.3,0.9-1.1,1.8-2,2.1c-1.9,0.6-2.1-1.3-1.3-2.6c0.1-0.1,0.8-1.3,0.7-0.7
						c-0.1,0.4-0.7,0.5-0.6,1c0-0.2,0.5-0.8,0.5-1c0.1-0.3,0-0.7,0-1c-0.2-1.6-2.6-0.9-2.4,0.7c0,0.1,0,0.2,0,0.3
						c0-0.3,0.1-0.6,0.1-1c-0.4,0.9-1.1,1.7-0.6,2.8c0.4,1,1.5,1.5,2.5,1.4c2-0.2,4.5-2.9,3.2-4.9c-2.7-4.2-8.6,3.2-5.5,6.6
						c1.6,1.8,4.5,1.2,6.1-0.2c1.8-1.5,2.4-4,1.6-6.2c-0.8-2.1-3-3.8-5.3-3.4c-2.4,0.5-3.9,2.7-4.1,5.1c-0.1,2.5,1,5.8,3.9,6.1
						c2.5,0.3,4.5-2.3,3.1-4.5C209.5,138.9,207.4,140.2,208.2,141.6L208.2,141.6z"/>
				</g>
			</g>
			<g>
				<g>
					<path fill="#FFFFFF" d="M207.7,90.3c-1,0-2,0.3-2.3-0.9c-0.2-0.8-0.2-1.7,0-2.5c0.4-1.7,1.8-3,3.5-2.1c1.7,0.9,1.6,3,0.3,4.3
						c-0.5,0.6-1.6,1.2-2.4,0.7c-0.5-0.3-0.7-1-0.4-1.5c0.1-0.1,0.3-0.3,0.4-0.4c0.5-0.3,0.9-0.2,1.3,0.2c-0.4-0.6-0.7-1.3-1.1-1.9
						c0,0-0.1,0-0.1,0c-1.5-0.6-2.1,1.8-0.7,2.4c1.2,0.5,2.3,0,2.9-1.1c0.4-0.8-0.1-1.9-1.1-1.9c-1.9,0.1-3.4,2.3-1.8,3.9
						c1.4,1.4,3.7,0.7,4-1.2c0.8-4.5-7.7-3.6-6.5,1.3c0.5,2,2.5,3.3,4.5,2.8c2-0.5,3.6-2.2,4.1-4.2c1-4.1-3.6-7.9-7.3-5.5
						c-1.9,1.3-2.6,3.8-2.4,6c0.1,1.1,0.3,2.3,1.1,3.1c1,1,2.5,0.9,3.8,0.9C209.3,92.9,209.3,90.4,207.7,90.3L207.7,90.3z"/>
				</g>
			</g>
			<g>
				<g>
					<path fill="#FFFFFF" d="M180.6,115.4c0,0,0-0.1,0.1-0.1c-0.2,0.2-0.5,0.4-0.7,0.6c0,0,0.1,0,0.1,0c-0.3,0-0.6-0.1-1-0.1
						c0,0,0.1,0.1,0.1,0.1c-0.2-0.4-0.4-0.7-0.6-1.1c0,0,0,0.1,0,0.1c0.3-0.3,0.6-0.6,0.9-0.9c-0.9,0.2-0.5-1.7,0.6-1
						c0.9,0.6,0.1,1.9-0.9,1.8c-0.9-0.1-1.2-1.4-0.5-1.9c0.7-0.4,1.6-0.2,1.8,0.6c0.2,0.8-0.5,1.7-1.3,1.6c-1.1-0.2-1.7-1.4-1.1-2.3
						c0.6-0.8,2.3-1.3,2.1,0.2c-0.1,0.6-0.4,1.3-1,1.4c-0.2,0.1-1.2-0.1-0.8-0.6c1-1.2-0.8-3-1.8-1.8c-2,2.5,0.6,5.7,3.6,4.7
						c2.6-0.9,3.8-5.4,1-6.9c-2.6-1.3-5.9,1.1-5.8,3.9c0.1,2.7,3.3,4.7,5.7,3.4c2.2-1.2,2.7-4.6,0.7-6.3c-1.9-1.5-5.2-0.6-5.8,1.8
						c-0.7,2.7,2,5.3,4.7,4.3c2.7-1,3.2-4.8,0.7-6.3c-2.9-1.7-6.4,2-4.1,4.6c0.9,1,3.2,1.8,3.8,0.1c0.7-1.7-1.8-3.1-2.5-1.4
						C177.8,115.6,179.9,116.8,180.6,115.4L180.6,115.4z"/>
				</g>
			</g>
			<g>
				<g>
					<path fill="#FFFFFF" d="M174.6,113.1c-4.4,0.4-8.7,0.2-13.1-0.5c-1.6-0.3-2.3,2.2-0.7,2.4c4.6,0.7,9.1,0.9,13.8,0.6
						C176.2,115.5,176.2,113,174.6,113.1L174.6,113.1z"/>
				</g>
			</g>
			<g>
				<g>
					<path fill="#FFFFFF" d="M188.7,146.5c-1.5-6.8-1.3-13.9-2.3-20.8c-0.2-1.6-2.6-0.9-2.4,0.7c1,6.9,0.7,14,2.3,20.8
						C186.6,148.8,189,148.1,188.7,146.5L188.7,146.5z"/>
				</g>
			</g>
			<g>
				<g>
					<path fill="#FFFFFF" d="M187.1,102.3c0.6-6.6,1.2-13.2,2.1-19.8c0.2-1.6-2.3-1.6-2.5,0c-0.9,6.6-1.5,13.2-2.1,19.8
						C184.5,103.9,187,103.9,187.1,102.3L187.1,102.3z"/>
				</g>
			</g>
		</g>
	</g>
	<g>
		<g>
			<g>
				<g>
					<path fill="#FFFFFF" d="M113.4,113.1c-6.1,6.3-12.5,12.3-19.2,18.1c-1.2,1,0.6,2.8,1.8,1.8c6.7-5.7,13.1-11.7,19.2-18.1
						C116.3,113.7,114.5,112,113.4,113.1L113.4,113.1z"/>
				</g>
			</g>
			<g>
				<g>
					<path fill="#FFFFFF" d="M95.3,132.3c-7.3-7.1-21.2,2.6-15,11.5c5.7,8.2,20-1.3,15.7-9.7c-0.7-1.4-2.9-0.2-2.2,1.3
						c2.9,5.7-7.8,12.5-11.6,6.9c-4.4-6.6,6.1-13.2,11.2-8.2C94.7,135.2,96.5,133.4,95.3,132.3L95.3,132.3z"/>
				</g>
			</g>
			<g>
				<g>
					<path fill="#FFFFFF" d="M71.4,174c4.2-5.2,7.5-11.2,10.3-17.3c1.5-3.2,4-9.8-0.2-12.4c-3-1.9-9.5,0.9-12.3,2
						c-6.3,2.6-11.7,6.8-16.8,11.2c-1.2,1.1,0.6,2.8,1.8,1.8c5.7-5,15.4-13.4,23.7-12.8c4.1,0.3,3.7,3.4,2.5,6.9
						c-0.8,2.2-2,4.4-3.1,6.6c-2.2,4.3-4.6,8.4-7.6,12.2C68.6,173.5,70.4,175.3,71.4,174L71.4,174z"/>
				</g>
			</g>
			<g>
				<g>
					<path fill="#FFFFFF" d="M70.3,174.4c-7-2.8-12.3-8.4-14.8-15.5c-0.5-1.5-2.9-0.9-2.4,0.7c2.8,8,8.7,14.1,16.5,17.2
						C71.1,177.4,71.7,174.9,70.3,174.4L70.3,174.4z"/>
				</g>
			</g>
			<g>
				<g>
					<path fill="#FFFFFF" d="M57.7,169.1c-4.1,4.5-8.6,8.7-13.3,12.6c-1.2,1,0.5,2.8,1.8,1.8c4.7-3.9,9.2-8.1,13.3-12.6
						C60.6,169.7,58.8,167.9,57.7,169.1L57.7,169.1z"/>
				</g>
			</g>
			<g>
				<g>
					<path fill="#FFFFFF" d="M41,199.3c2.2-5,3.9-10.1,5.1-15.4c0.2-0.7-0.4-1.7-1.2-1.6c-5.9,0.6-11.7,1.4-17.2,3.7
						c-1.5,0.6-0.2,2.8,1.3,2.2c5.1-2.2,10.5-2.8,15.9-3.4c-0.4-0.5-0.8-1.1-1.2-1.6c-1.2,5.1-2.8,10-4.9,14.8
						C38.2,199.5,40.3,200.8,41,199.3L41,199.3z"/>
				</g>
			</g>
			<g>
				<g>
					<path fill="#FFFFFF" d="M66.5,197.1c1.5-7.3,3.3-14.5,5.2-21.6c0.4-1.6-2-2.2-2.4-0.7c-1.9,7.2-3.7,14.4-5.2,21.6
						C63.7,198,66.1,198.7,66.5,197.1L66.5,197.1z"/>
				</g>
			</g>
			<g>
				<g>
					<path fill="#FFFFFF" d="M53,157.5c-3,0.7-6.1,1.4-9.2,1.9c-2.7,0.5-7.4,2-10.1,1.1c-1.5-0.5-2.2,1.9-0.7,2.4
						c2.5,0.9,6-0.2,8.5-0.6c4-0.6,8-1.4,12-2.4C55.2,159.6,54.5,157.1,53,157.5L53,157.5z"/>
				</g>
			</g>
			<g>
				<g>
					<path fill="#FFFFFF" d="M53.9,196.6c0.4-4.7,0.7-9.5,1.1-14.2c0.2-2.3,1.6-6.9-0.4-8.8c-1.8-1.8-6.7-1.3-9-1.3
						c-4.7-0.1-9.3,0.3-13.9,1.1c-1.6,0.3-0.9,2.7,0.7,2.4c3.8-0.6,19.3-3.4,20.5,1.6c0.6,2.5-0.5,6.6-0.7,9.2
						c-0.3,3.3-0.5,6.7-0.8,10C51.2,198.2,53.7,198.2,53.9,196.6L53.9,196.6z"/>
				</g>
			</g>
			<g>
				<g>
					<path fill="#FFFFFF" d="M63.9,201c0.5,2.2,3.2,3,4.9,1.5c1.9-1.6,1.5-4.3,0.2-6.2c-1.3-1.9-3.4-3.3-5.7-3
						c-2.5,0.4-4.1,2.6-3.8,5.1c0.2,2.4,2.1,4.5,4.5,5c2.2,0.4,5-0.5,5.8-2.8c1.8-4.6-7.3-7.8-8.3-3.1c-0.6,2.8,3.1,3.5,5,2.6
						c1.1-0.5,1.8-1.5,1.6-2.7c-0.1-0.5-0.3-1-0.8-1.3c-0.2-0.1-1.3-0.6-1.2-0.4c-0.9-1.4-3-0.1-2.2,1.3c0.4,0.6,0.8,0.8,1.5,1
						c0.5,0.1,0.4,0.1-0.1-0.1c-0.2,0-0.4,0.1-0.6,0.1c-0.5,0.1-0.6,0-0.2-0.3c0.2,0,0.4,0,0.6,0.1c0.9,0,2.7,0.9,2.3,2
						c-0.5,1.3-2.6,1.3-3.6,1c-2.4-1-2.7-5.5,0.6-5c1.1,0.2,2,1,2.6,1.9c0.3,0.5,0.6,1,0.6,1.6c0,0.4-0.9,2.4-1.3,0.9
						C65.9,198.8,63.5,199.4,63.9,201L63.9,201z"/>
				</g>
			</g>
			<g>
				<g>
					<path fill="#FFFFFF" d="M32.1,165.5c1.7-1.8,2.8-3.5,1.1-5.8c-1.3-1.8-3.5-3.3-5.8-3.2c-4.3,0.3-5.7,6-2.5,8.7
						c2.9,2.4,9.4,1.1,8.2-3.6c-1.3-4.8-9-1.9-6.7,1.9c1.2,1.9,4.1,1.4,4.4-0.9c0.3-2.3-2.5-3.3-4-1.8c-0.7,0.7-0.4,1.8,0.6,2.1
						c1.4,0.4,2.5-0.3,3-1.6c0.6-1.5-1.8-2.1-2.4-0.7c0-0.1,0.1-0.1,0.1-0.2c0.2,0.7,0.4,1.4,0.6,2.1c0.6-0.6,0.1-1.1,1.1-1.1
						c0.5,0,0.9,0.3,1,0.8c0.3,1.1-0.9,1.6-1.7,1.7c-1.5,0.2-3.2-0.8-3.3-2.4c-0.1-1.6,1.3-2.9,2.9-2.4c0.9,0.2,1.7,0.9,2.3,1.5
						c0.2,0.3,0.8,0.8,0.8,1.2c0,0.6-0.9,1.4-1.3,1.8C29.3,164.9,31.1,166.7,32.1,165.5L32.1,165.5z"/>
				</g>
			</g>
			<g>
				<g>
					<path fill="#FFFFFF" d="M68,159.9c-1.6-0.6-2.4,1.6-1.2,2.6c1.2,1,2.6-0.3,2.9-1.5c0.8-2.8-2.3-4.8-4.7-3.3
						c-2.5,1.6-1.4,5.5,1.3,6.1c2.9,0.6,5.1-2.4,3.9-5c-1.2-2.6-4.8-2.5-6.3-0.2c-1.6,2.4,0.4,5.3,3.1,5.6c2.7,0.2,4.5-2.6,3.8-5.1
						c-0.7-2.6-4-3.5-6.2-2.1c-1.3,0.8-2.1,2.5-1.4,4c0.7,1.5,2.6,2.5,4.2,2.4c1.6-0.1,3.1-1.4,3.2-3c0.1-1.7-1.1-2.9-2.7-3.1
						c-1.6-0.2-1.6,2.3,0,2.5c0.6,0.1,0,0.9-0.1,1c-0.6,0.4-1.4,0.1-1.9-0.4c-1.1-0.9,0.5-1.7,1.4-1.5c2.4,0.4,0.6,4.2-1.1,2.3
						c-0.6-0.7-0.1-1.7,0.8-1.8c1.1-0.1,1.5,1.4,0.6,1.9c-0.7,0.4-2.1-0.3-1.5-1.2c0.6-0.8,1.7,0.1,1,0.6c0.4,0,0.8,0,1.3,0
						c0,0-0.1-0.1-0.1-0.1c0.1,0.4,0.2,0.8,0.3,1.2c0,0,0-0.1,0-0.1c-0.2,0.2-0.4,0.5-0.6,0.7c0,0,0.1-0.1,0.1-0.1
						c-0.3,0-0.6,0.1-1,0.1c0,0,0.1,0,0.1,0C68.8,162.9,69.5,160.4,68,159.9L68,159.9z"/>
				</g>
			</g>
			<g>
				<g>
					<path fill="#FFFFFF" d="M71.7,158.3c3.5-3,6.6-6.4,9.3-10.1c0.9-1.3-1.2-2.6-2.2-1.3c-2.6,3.6-5.6,6.8-8.9,9.6
						C68.7,157.5,70.5,159.3,71.7,158.3L71.7,158.3z"/>
				</g>
			</g>
			<g>
				<g>
					<path fill="#FFFFFF" d="M82.8,188.4c-3.2-5.4-6.5-10.8-10.1-15.9c-0.9-1.3-3.1,0-2.2,1.3c3.7,5.1,6.9,10.5,10.1,15.9
						C81.5,191,83.7,189.7,82.8,188.4L82.8,188.4z"/>
				</g>
			</g>
			<g>
				<g>
					<path fill="#FFFFFF" d="M55.2,155.9c-5-4-11.6-6.3-16-11c-1.1-1.2-2.9,0.6-1.8,1.8c4.5,4.7,11,7,16,11
						C54.7,158.7,56.5,156.9,55.2,155.9L55.2,155.9z"/>
				</g>
			</g>
		</g>
		<g>
			<g>
				<g>
					<path fill="#FFFFFF" d="M114.9,115.2c6.3-6.1,12.3-12.5,18.1-19.2c1-1.2-0.7-3-1.8-1.8c-5.7,6.7-11.7,13.1-18.1,19.2
						C111.9,114.5,113.7,116.3,114.9,115.2L114.9,115.2z"/>
				</g>
			</g>
			<g>
				<g>
					<path fill="#FFFFFF" d="M134,93.6c-5-5.1,1.6-15.6,8.2-11.2c5.7,3.8-1.2,14.5-6.9,11.6c-1.4-0.7-2.7,1.4-1.3,2.2
						c8.4,4.3,17.8-10,9.7-15.7c-8.9-6.3-18.6,7.7-11.5,15C133.4,96.5,135.1,94.7,134,93.6L134,93.6z"/>
				</g>
			</g>
			<g>
				<g>
					<path fill="#FFFFFF" d="M172.2,69.6c-3.5,2.9-7.4,5.1-11.4,7.2c-2.3,1.2-4.8,2.7-7.3,3.5c-3.5,1.2-6.7,1.6-6.9-2.5
						c-0.5-8.2,7.9-18,12.8-23.7c1.1-1.2-0.7-3-1.8-1.8c-4.3,4.9-8.3,10-10.9,16c-1.3,3-4.4,9.8-2.4,13.1c2.4,3.9,8.6,1.8,11.6,0.5
						c6.4-2.7,12.6-6.3,18-10.6C175.2,70.4,173.5,68.6,172.2,69.6L172.2,69.6z"/>
				</g>
			</g>
			<g>
				<g>
					<path fill="#FFFFFF" d="M176.7,69.6c-3.2-7.8-9.3-13.7-17.2-16.5c-1.5-0.5-2.2,1.9-0.7,2.4c7.1,2.5,12.7,7.8,15.5,14.8
						C174.9,71.8,177.3,71.1,176.7,69.6L176.7,69.6z"/>
				</g>
			</g>
			<g>
				<g>
					<path fill="#FFFFFF" d="M170.8,59.5c4.5-4.1,8.7-8.6,12.6-13.3c1-1.2-0.7-3-1.8-1.8c-3.9,4.7-8.1,9.2-12.6,13.3
						C167.9,58.8,169.7,60.6,170.8,59.5L170.8,59.5z"/>
				</g>
			</g>
			<g>
				<g>
					<path fill="#FFFFFF" d="M198,38.9c-4.8,2.1-9.7,3.7-14.8,4.9c0.5,0.4,1.1,0.8,1.6,1.2c0.6-5.4,1.2-10.8,3.4-15.9
						c0.6-1.5-1.5-2.7-2.2-1.3c-2.3,5.5-3.1,11.3-3.7,17.2c-0.1,0.8,0.9,1.4,1.6,1.2c5.3-1.2,10.4-2.9,15.4-5.1
						C200.8,40.4,199.5,38.2,198,38.9L198,38.9z"/>
				</g>
			</g>
			<g>
				<g>
					<path fill="#FFFFFF" d="M196.5,64.1c-7.3,1.5-14.5,3.3-21.6,5.2c-1.6,0.4-0.9,2.8,0.7,2.4c7.2-1.9,14.4-3.6,21.6-5.2
						C198.7,66.2,198,63.8,196.5,64.1L196.5,64.1z"/>
				</g>
			</g>
			<g>
				<g>
					<path fill="#FFFFFF" d="M159.9,53.7c0.9-4,1.7-8,2.4-12c0.4-2.6,1.5-6,0.6-8.5c-0.5-1.5-2.9-0.9-2.4,0.7
						c0.9,2.8-0.6,7.3-1.1,10.1c-0.5,3.1-1.2,6.1-1.9,9.2C157.1,54.6,159.5,55.2,159.9,53.7L159.9,53.7z"/>
				</g>
			</g>
			<g>
				<g>
					<path fill="#FFFFFF" d="M196.6,51.4c-3.3,0.3-6.7,0.5-10,0.8c-2.6,0.2-6.7,1.3-9.2,0.7c-5.1-1.2-2.2-16.7-1.6-20.5
						c0.3-1.6-2.1-2.3-2.4-0.7c-0.7,4.3-1.2,8.6-1.1,13c0,2.5-0.6,7.9,1.3,9.9c1.8,1.9,5.9,0.6,8,0.5c5-0.4,10-0.8,15.1-1.2
						C198.2,53.8,198.2,51.3,196.6,51.4L196.6,51.4z"/>
				</g>
			</g>
			<g>
				<g>
					<path fill="#FFFFFF" d="M200.3,66.4c1.3,0.3-0.2,1.2-0.6,1.3c-0.6,0.1-1.2-0.2-1.7-0.5c-0.9-0.5-1.8-1.4-2.1-2.4
						c-0.9-3.3,3.8-3.5,4.9-0.9c0.4,1,0.3,2.7-0.7,3.3c-1.3,0.8-2-0.8-2.2-1.9c-0.1-0.3-0.1-0.6-0.1-0.8c0.3-0.3,0.4-0.3,0.3,0
						c0,0.3,0,0.6-0.1,0.9c0.2,0.5,0.2,0.6,0.1,0.3c-0.4-0.7-0.3-1.1-1-1.6c-1.4-0.9-2.6,1.3-1.3,2.2c-0.3-0.2,0.1,0.8,0.2,0.9
						c0.2,0.4,0.6,0.7,1,0.8c1,0.4,2.1,0.1,2.7-0.6c1.3-1.5,1.3-4.9-0.7-5.7c-2.2-0.9-3.8,1.4-3.7,3.4c0.1,2,1.5,4.6,3.7,5
						c2.5,0.4,4.3-2,4.5-4.2c0.3-2.4-1-4.7-3.2-5.7c-2.1-1-5-0.6-6.3,1.5c-1.3,2.1-0.6,4.7,1,6.4c1.7,1.8,4.6,3.1,6.9,1.5
						c2.1-1.5,1.7-4.8-0.9-5.5C199.4,63.6,198.7,66,200.3,66.4L200.3,66.4z"/>
				</g>
			</g>
			<g>
				<g>
					<path fill="#FFFFFF" d="M163.7,30.4c-0.4,0.4-0.8,0.9-1.4,1.1c-0.7,0.2-1,0-1.5-0.5c-0.7-0.6-1.4-1.4-1.7-2.2
						c-0.6-1.7,0.6-3.2,2.4-3.1c1.6,0.1,2.5,1.7,2.4,3.1c0,0.9-0.4,2-1.5,2c-0.5,0-0.9-0.3-1-0.8c-0.3-1,0.6-0.9,1.1-1.3
						c-0.7-0.2-1.4-0.4-2.1-0.6c0.1,0,0.1-0.1,0.2-0.1c-1.5,0.6-0.8,3,0.7,2.4c1.3-0.5,2-1.6,1.6-3c-0.3-0.9-1.4-1.2-2.1-0.6
						c-1.2,1.2-0.9,3.6,1,4c1.9,0.4,3.5-1.6,2.7-3.4c-0.9-1.9-3.4-1.7-4.6-0.2c-1.3,1.5-1.2,4,0.5,5.2c1.6,1.2,3.8,0.9,5.1-0.6
						c1.3-1.5,1.4-3.9,0.6-5.6c-1.6-3.8-7.3-4.3-9.1-0.3c-1.1,2.4,0.2,5,2,6.7c0.8,0.8,1.9,1.6,3.1,1.6c1.5,0,2.5-1.1,3.5-2
						C166.7,31.1,164.9,29.3,163.7,30.4L163.7,30.4z"/>
				</g>
			</g>
			<g>
				<g>
					<path fill="#FFFFFF" d="M162.2,67.3c0,0,0-0.1,0-0.1c0,0.3-0.1,0.6-0.1,1c0,0,0.1-0.1,0.1-0.1c-0.2,0.2-0.5,0.4-0.7,0.6
						c0,0,0.1,0,0.1,0c-0.4-0.1-0.8-0.2-1.2-0.3c0,0,0.1,0.1,0.1,0.1c0-0.4,0-0.8,0-1.3c-0.5,0.7-1.5-0.4-0.6-1
						c0.9-0.6,1.6,0.8,1.2,1.5c-0.5,0.8-1.9,0.5-1.9-0.5c0-0.9,1.1-1.6,1.8-0.9c1.9,1.7-1.9,3.5-2.3,1.1c-0.1-0.9,0.6-2.5,1.5-1.4
						c0.4,0.5,0.7,1.3,0.4,1.9c-0.1,0.2-0.9,0.7-1,0.1c-0.2-1.6-2.7-1.6-2.5,0c0.4,3.2,4.6,3.6,5.8,0.7c1.2-2.7-1.6-6.9-4.6-5.3
						c-2.4,1.2-2.9,4.7-1,6.6c1.8,1.8,5.2,1.2,6.3-1c1.2-2.4-0.7-5.6-3.4-5.5c-2.7,0.1-4.5,3.4-3,5.6c1.6,2.4,5.4,1.9,6.3-0.8
						c0.9-2.7-1.7-5.6-4.5-4.5c-3,1.2-2.5,5.9,0.9,6c1.3,0.1,3.3-0.9,2.8-2.5c-0.6-1.8-3.5-1.1-2.8,0.7
						C160.4,69.5,162.8,68.8,162.2,67.3L162.2,67.3z"/>
				</g>
			</g>
			<g>
				<g>
					<path fill="#FFFFFF" d="M156.5,70c-2.8,3.4-6,6.4-9.6,8.9c-1.3,0.9,0,3.1,1.3,2.2c3.8-2.7,7.1-5.8,10.1-9.3
						C159.3,70.5,157.5,68.7,156.5,70L156.5,70z"/>
				</g>
			</g>
			<g>
				<g>
					<path fill="#FFFFFF" d="M188.6,81.4c-5.2-3.2-9.9-7.2-14.9-10.9c-1.3-1-2.5,1.2-1.3,2.2c4.9,3.6,9.6,7.6,14.9,10.9
						C188.7,84.4,190,82.3,188.6,81.4L188.6,81.4z"/>
				</g>
			</g>
			<g>
				<g>
					<path fill="#FFFFFF" d="M157.7,53.5c-4.4-5-11.4-8.5-14.3-14.7c-0.7-1.5-2.8-0.2-2.2,1.3c3,6.4,10.2,10,14.7,15.2
						C157,56.5,158.7,54.7,157.7,53.5L157.7,53.5z"/>
				</g>
			</g>
		</g>
	</g>
	<g>
		<g>
			<path fill="#FFFFFF" d="M96.1,84.1c2.8-1.7,5.7-3,8.8-3.9c1.5-0.5,0.9-2.9-0.7-2.4c-3.3,1-6.4,2.4-9.4,4.2
				C93.5,82.8,94.7,85,96.1,84.1L96.1,84.1z"/>
		</g>
	</g>
	<g>
		<g>
			<path fill="#FFFFFF" d="M121.6,80.1c3,1.1,5.8,2.3,8.7,3.7c1.4,0.7,2.7-1.5,1.3-2.2c-3-1.5-6.1-2.8-9.3-3.9
				C120.8,77.1,120.1,79.5,121.6,80.1L121.6,80.1z"/>
		</g>
	</g>
	<g>
		<g>
			<path fill="#FFFFFF" d="M142.8,95.4c2.1,2.7,3.5,5.7,4.1,9.1c0.3,1.6,2.7,0.9,2.4-0.7c-0.8-3.8-2.4-7.2-4.8-10.2
				C143.5,92.4,141.8,94.1,142.8,95.4L142.8,95.4z"/>
		</g>
	</g>
	<g>
		<g>
			<path fill="#FFFFFF" d="M80.9,93c-2.5,3.6-3.9,7.5-4.4,11.9c-0.2,1.6,2.3,1.6,2.5,0c0.4-3.9,1.9-7.4,4.1-10.6
				C84,93,81.9,91.7,80.9,93L80.9,93z"/>
		</g>
	</g>
	<g>
		<g>
			<path fill="#FFFFFF" d="M77.8,121.4c0.7,3.7,1.9,7.2,3.8,10.4c0.8,1.4,2.9,0.1,2.2-1.3c-1.7-3.1-2.9-6.4-3.5-9.8
				C79.9,119.2,77.5,119.9,77.8,121.4L77.8,121.4z"/>
		</g>
	</g>
	<g>
		<g>
			<path fill="#FFFFFF" d="M90,146.8c2.2,2.3,4.8,4.4,7.8,5.6c2.2,0.8,5.9,1.8,8,0.2c1.3-1,0-3.1-1.3-2.2c-1.8,1.4-5.7-0.2-7.4-1.1
				c-2.1-1.1-3.8-2.7-5.4-4.3C90.7,143.9,88.9,145.6,90,146.8L90,146.8z"/>
		</g>
	</g>
	<g>
		<g>
			<path fill="#FFFFFF" d="M121.9,150c3.9-0.1,9.8-0.4,12.2-4c0.9-1.3-1.3-2.6-2.2-1.3c-1,1.4-3.1,1.7-4.7,2.1
				c-1.8,0.4-3.5,0.6-5.3,0.6C120.3,147.5,120.3,150,121.9,150L121.9,150z"/>
		</g>
	</g>
	<g>
		<g>
			<path fill="#FFFFFF" d="M145.4,134c2.9-3.7,4.8-7.9,5.4-12.6c0.2-1.6-2.2-2.3-2.4-0.7c-0.6,4.2-2.1,8.1-4.8,11.5
				C142.6,133.5,144.4,135.3,145.4,134L145.4,134z"/>
		</g>
	</g>
	<g>
		<g>
			<path fill="#FFFFFF" d="M116.7,69.9c2.3-1,4.5-2,6.8-3c2.6-1.1,6.4-3.8,9.2-3.9c4.5-0.1,7.3,10.7,8.1,14.5
				c0.3,1.6,2.8,0.9,2.4-0.7c-0.8-3.6-2.1-7-3.8-10.3c-0.9-1.8-2.2-5.8-4.4-6.5c-2.3-0.7-5.6,1.5-7.5,2.3c-4,1.7-8,3.5-12.1,5.3
				C114,68.4,115.3,70.6,116.7,69.9L116.7,69.9z"/>
		</g>
	</g>
	<g>
		<g>
			<path fill="#FFFFFF" d="M136.3,60.8c0.2-1.6,0.5-3.2,1-4.8c0.4-1.2,0.8-3.6,2.2-4.1c1.5-0.5,0.9-3-0.7-2.4
				c-4,1.4-4.6,7.8-5.1,11.4C133.6,62.4,136.1,62.4,136.3,60.8L136.3,60.8z"/>
		</g>
	</g>
	<g>
		<g>
			<path fill="#FFFFFF" d="M85.4,79.5c0.9-3,1.8-6.1,2.8-9.1c0.4-1.4,0.6-3.3,1.4-4.6c0-0.9,0.6-1.5,1.6-1.6c0.9-1,1.7-0.9,2.4,0.2
				c1.8,0.8,3.1,2.4,5,3.2c2.4,1,7.2,0.7,8.9,2.4c1.1,1.2,2.9-0.6,1.8-1.8c-2.7-2.8-6.3-1.6-9.7-3c-2.6-1.1-5.3-4.9-8.2-4.9
				c-1.8,0-2.8,1.4-3.5,2.9c-2.3,4.7-3.3,10.6-4.8,15.7C82.5,80.3,84.9,81,85.4,79.5L85.4,79.5z"/>
		</g>
	</g>
	<g>
		<g>
			<path fill="#FFFFFF" d="M84.3,50.2c1.1,1.7,1.8,3.7,2.6,5.6c0.9,2.2,1.9,4.5,2.8,6.7c0.6,1.5,2.8,0.2,2.2-1.3
				C90.9,59,90,56.8,89,54.5c-0.8-1.9-1.4-3.9-2.6-5.6C85.6,47.6,83.4,48.8,84.3,50.2L84.3,50.2z"/>
		</g>
	</g>
	<g>
		<g>
			<path fill="#FFFFFF" d="M67.8,109.9c-0.1-2.3-1.3-4.1-2.3-6.2c-1.7-3.6-3-7.4-4.1-11.2c-0.3,0.5-0.6,1-0.9,1.5
				c6.5-1.6,11.8-5.6,18-7.8c1.5-0.6,0.9-3-0.7-2.4c-6.2,2.3-11.6,6.2-18,7.8c-0.7,0.2-1.1,0.9-0.9,1.5c0.9,3.1,1.9,6.1,3.1,9.1
				c1,2.3,3,5.1,3.1,7.6C65.4,111.5,67.9,111.5,67.8,109.9L67.8,109.9z"/>
		</g>
	</g>
	<g>
		<g>
			<path fill="#FFFFFF" d="M46.6,88c4.6,2.5,9.2,5,13.8,7.5c1.4,0.8,2.7-1.4,1.3-2.2c-4.6-2.5-9.2-5-13.8-7.5
				C46.5,85.1,45.2,87.3,46.6,88L46.6,88z"/>
		</g>
	</g>
	<g>
		<g>
			<path fill="#FFFFFF" d="M68.3,117c-1.7,6.2-3.3,12.5-4.9,18.7c-0.2,0.8,0.4,1.6,1.2,1.6c5.4,0.1,10,2.2,13.6,6.3
				c1.1,1.2,2.8-0.6,1.8-1.8c-4.1-4.5-9.3-6.9-15.3-7c0.4,0.5,0.8,1.1,1.2,1.6c1.6-6.3,3.2-12.5,4.9-18.7
				C71.2,116.1,68.8,115.5,68.3,117L68.3,117z"/>
		</g>
	</g>
	<g>
		<g>
			<path fill="#FFFFFF" d="M52.1,143.5c4.7-1.7,9.4-3.7,14-5.9c1.5-0.7,0.2-2.8-1.3-2.2c-4.4,2.1-8.8,3.9-13.4,5.6
				C49.9,141.7,50.6,144.1,52.1,143.5L52.1,143.5z"/>
		</g>
	</g>
	<g>
		<g>
			<path fill="#FFFFFF" d="M83.5,148.3c1.8,6.3,2.9,14.2,6.2,20c0.3,0.6,1.2,0.8,1.7,0.4c6.1-4.1,12.4-7.6,19.2-10.3
				c1.5-0.6,0.8-3-0.7-2.4c-7,2.8-13.6,6.3-19.8,10.5c0.6,0.1,1.1,0.3,1.7,0.4c-3.2-5.5-4.2-13.3-5.9-19.4
				C85.4,146.1,83,146.8,83.5,148.3L83.5,148.3z"/>
		</g>
	</g>
	<g>
		<g>
			<path fill="#FFFFFF" d="M87.5,178.9c0.2-2,1.8-3.9,2.8-5.6c1-1.7,2-3.3,3-5c0.8-1.4-1.3-2.6-2.2-1.3c-1.3,2.2-2.6,4.4-3.9,6.6
				c-1,1.7-2,3.3-2.2,5.3C84.8,180.5,87.3,180.5,87.5,178.9L87.5,178.9z"/>
		</g>
	</g>
	<g>
		<g>
			<path fill="#FFFFFF" d="M116.5,160.6c6,3.3,12.2,6.3,18.6,8.9c0.7,0.3,1.3-0.3,1.5-0.9c2.7-6.7,4.6-13.7,5.8-20.8
				c0.3-1.6-2.2-2.3-2.4-0.7c-1.2,7.2-3.1,14.1-5.8,20.8c0.5-0.3,1-0.6,1.5-0.9c-6.2-2.6-12.1-5.5-18-8.7
				C116.4,157.6,115.1,159.8,116.5,160.6L116.5,160.6z"/>
		</g>
	</g>
	<g>
		<g>
			<path fill="#FFFFFF" d="M134.4,170.9c1.1,0.7,1.9,3.3,2.6,4.4c0.8,1.5,1.6,3,2.4,4.5c0.8,1.4,2.9,0.2,2.2-1.3
				c-1-1.9-2.1-3.9-3.1-5.8c-0.8-1.4-1.4-3.2-2.8-4C134.3,167.9,133.1,170,134.4,170.9L134.4,170.9z"/>
		</g>
	</g>
	<g>
		<g>
			<path fill="#FFFFFF" d="M149.5,143.1c6.2-2,12.5-3.5,18.9-4.7c0.8-0.1,1.1-1.2,0.7-1.8c-3.4-5.6-8.1-10.5-9.6-17.1
				c-0.4-1.6-2.8-0.9-2.4,0.7c1.6,6.8,6.4,11.8,9.9,17.7c0.2-0.6,0.5-1.2,0.7-1.8c-6.4,1.2-12.7,2.8-18.9,4.7
				C147.3,141.1,147.9,143.6,149.5,143.1L149.5,143.1z"/>
		</g>
	</g>
	<g>
		<g>
			<path fill="#FFFFFF" d="M169.1,138.4c-0.1,0,2.5,1.6,3,1.9c1.2,0.7,2.4,1.4,3.6,2.1c1.4,0.8,2.7-1.3,1.3-2.2
				c-1.8-1-3.6-2.1-5.4-3.1c-1.1-0.6-2.4-1.7-3.7-0.8C166.6,137.2,167.8,139.3,169.1,138.4L169.1,138.4z"/>
		</g>
	</g>
	<g>
		<g>
			<path fill="#FFFFFF" d="M146.6,86.6c2.9,0.8,17.8,3.1,18.2,6c0.3,2.1-2.9,5.9-3.9,7.9c-1.3,2.5-2.4,5.1-3.4,7.7
				c-0.6,1.5,1.8,2.1,2.4,0.7c1.8-4.4,3.8-8.7,6.3-12.7c0.9-1.5,2.7-3.3,1.8-5.1c-1.1-2-5.8-2.8-7.8-3.4c-4.3-1.2-8.6-2.2-12.9-3.4
				C145.7,83.8,145,86.2,146.6,86.6L146.6,86.6z"/>
		</g>
	</g>
	<g>
		<g>
			<path fill="#FFFFFF" d="M168,93.5c2.4-2.5,6.8-1.3,9.7-3.2c1.3-0.9,0.1-3.1-1.3-2.2c-3.1,2.1-7.4,0.7-10.2,3.6
				C165.1,92.9,166.9,94.7,168,93.5L168,93.5z"/>
		</g>
	</g>
</g>
</svg>
